<?xml version="1.0" encoding="iso-8859-1"?>
<!-- Generator: Adobe Illustrator 19.0.0, SVG Export Plug-In . SVG Version: 6.00 Build 0)  -->
<svg version="1.1" id="Capa_1" xmlns="http://www.w3.org/2000/svg" xmlns:xlink="http://www.w3.org/1999/xlink" x="0px" y="0px"
	 viewBox="0 0 512 512" style="enable-background:new 0 0 512 512;" xml:space="preserve">
<g>
	<g>
		<path d="M269.14,120.65c-40.956-40.956-107.539-40.951-148.491,0c-19.79,19.79-30.488,44.487-30.488,72.582
			c0,28.081,10.698,56.119,30.488,75.909c39.565,39.565,108.896,39.595,148.491,0c19.79-19.79,30.688-46.157,30.688-74.238
			C299.828,166.807,288.93,140.44,269.14,120.65z"/>
	</g>
</g>
<g>
	<g>
		<path d="M500.928,437.329l-86.313-86.377c-12.49-12.44-31.8-13.9-48.07-5.62l-23.69-23.69c65.62-76.52,62.38-192.18-10.07-264.62
			c-76.02-76.03-199.74-76.03-275.77,0c-76.02,76.02-76.02,199.74,0,275.77c71.77,71.76,187.12,76.54,264.63,10.07l23.69,23.69
			c-8.29,16.27-6.83,35.58,5.63,48.06l86.323,86.347c15.59,15.58,42.82,14.76,60.61-3.03
			C515.438,480.379,516.808,453.189,500.928,437.329z M290.355,290.351c-52.63,52.63-138.27,52.65-190.92,0
			c-52.63-52.63-52.63-138.28,0-190.91c52.68-52.65,138.3-52.62,190.92,0C341.024,150.111,345.479,235.227,290.355,290.351z"/>
	</g>
</g>
<g>
</g>
<g>
</g>
<g>
</g>
<g>
</g>
<g>
</g>
<g>
</g>
<g>
</g>
<g>
</g>
<g>
</g>
<g>
</g>
<g>
</g>
<g>
</g>
<g>
</g>
<g>
</g>
<g>
</g>
</svg>
