<svg id="Capa_1" enable-background="new 0 0 512 512" height="512" viewBox="0 0 512 512" width="512" xmlns="http://www.w3.org/2000/svg"><g><path d="m292.342 181.455-25.736 25.736c-5.857 5.858-15.355 5.858-21.213 0l-25.736-25.736c-11.267-11.267-26.066-16.9-40.866-16.9-14.799 0-29.599 5.633-40.865 16.9-10.915 10.916-16.926 25.429-16.926 40.865 0 15.437 6.011 29.95 16.927 40.865l118.073 118.073 118.073-118.073c10.916-10.915 16.927-25.428 16.927-40.865s-6.011-29.95-16.927-40.865c-22.534-22.534-59.198-22.534-81.731 0z"/><path d="m256 0c-141.159 0-256 114.841-256 256s114.841 256 256 256 256-114.841 256-256-114.841-256-256-256zm139.286 284.398-128.68 128.68c-2.929 2.929-6.768 4.394-10.606 4.394s-7.678-1.464-10.606-4.394l-128.68-128.68c-16.582-16.581-25.714-38.627-25.714-62.078 0-23.45 9.132-45.497 25.714-62.078 16.582-16.582 38.628-25.714 62.078-25.714s45.497 9.132 62.079 25.714l15.129 15.129 15.129-15.129c16.582-16.582 38.628-25.714 62.079-25.714 23.45 0 45.497 9.132 62.078 25.714 16.582 16.582 25.714 38.629 25.714 62.078 0 23.451-9.132 45.497-25.714 62.078z"/></g></svg>