<?xml version="1.0" encoding="utf-8"?>
<!-- Generator: Adobe Illustrator 24.1.3, SVG Export Plug-In . SVG Version: 6.00 Build 0)  -->
<svg version="1.1" xmlns="http://www.w3.org/2000/svg" xmlns:xlink="http://www.w3.org/1999/xlink" x="0px" y="0px"
	 viewBox="0 0 1640 624" style="enable-background:new 0 0 1640 624;" xml:space="preserve">
<style type="text/css">
	.st0{opacity:0.6;fill:#B6E9EF;}
	.st1{fill:none;}
	.st2{opacity:0.6;fill:#A0CFE0;}
	.st3{fill:#C4D1D6;}
	.st4{opacity:0.6;fill:#96B8E2;}
	.st5{opacity:0.6;fill:#4E9ACE;}
	.st6{opacity:0.6;fill:#A5C3DB;}
	.st7{fill:#FFFFFF;}
	.st8{fill:#315363;}
	.st9{stroke:#96AAB5;stroke-miterlimit:10;}
	.st10{fill:#96AAB5;}
	.st11{fill:#7D898E;stroke:#96AAB5;stroke-miterlimit:10;}
	.st12{fill:#7D898E;}
	.st13{fill:#758389;stroke:#96AAB5;stroke-miterlimit:10;}
	.st14{fill:#758389;}
	.st15{fill:#5F6B70;stroke:#96AAB5;stroke-miterlimit:10;}
	.st16{fill:#5F6B70;}
	.st17{fill:#787F82;stroke:#96AAB5;stroke-miterlimit:10;}
	.st18{fill:#787F82;}
	.st19{opacity:0.6;fill:#47CCE2;}
	.st20{opacity:0.6;fill:url(#SVGID_1_);}
	.st21{opacity:0.6;fill:#ACDEEA;}
	.st22{opacity:0.6;fill:#88CDD8;}
	.st23{opacity:0.6;fill:#F2AAD0;}
	.st24{opacity:0.8;fill:#E5D1DF;}
	.st25{opacity:0.6;fill:#D8ABC5;}
	.st26{fill:#F9F7F8;}
	.st27{fill:#0D5999;}
	.st28{fill:#3E7296;}
	.st29{opacity:0.8;fill:#E2AAAA;}
	.st30{opacity:0.9;fill:url(#SVGID_2_);enable-background:new    ;}
	.st31{fill:#3B3F3F;stroke:#606666;stroke-width:0.75;stroke-miterlimit:10;}
	.st32{fill:#DBE593;}
	.st33{fill:#020202;stroke:#000000;stroke-miterlimit:10;}
	.st34{fill:none;stroke:#000000;stroke-miterlimit:10;}
	.st35{fill:#748384;}
	.st36{fill:#062A63;}
	.st37{fill:#D6C529;}
	.st38{fill:#AF2B2B;}
	.st39{fill:#2E7E82;}
</style>
<g id="圖層_2">
	<rect x="2.6" y="-0.9" class="st0" width="1638.1" height="353.5"/>
</g>
<g id="圖層_3">
	<path class="st1" d="M6.8,347.7C552,348,1095,348,1640,348c0-15,0-30,0-44.6"/>
	<path class="st2" d="M1631,303.7c0,0-60.8-66.7-248.2-48.4C1195.5,273.7,617,313.7,546.3,197C477.4,83.1,81.7,78.7,1.3,114.2v237.9
		l671.5,4.4L1640,352L1631,303.7z"/>
</g>
<g id="圖層_4">
	<path class="st3" d="M678.7-89.2"/>
	<path class="st3" d="M678.7-89.2"/>
	<path class="st3" d="M673.3-89.2"/>
	<path class="st4" d="M1.3,354.3H677c0,0-120.7-18.2-226.3-67.6c0,0-243.9-141.5-449.3-88.1V354.3z"/>
</g>
<g id="圖層_5">
	<path class="st5" d="M4.1,356.4h673.8c0,0-320.7-25.6-316.4-32c4.2-6.4-242.6-45.5-357.4-15.3V356.4z"/>
</g>
<g id="圖層_8">
	<path class="st6" d="M1384.9,353.7H1640C1640,353.7,1400,271.1,1384.9,353.7z"/>
</g>
<g id="圖層_6">
	<path class="st7" d="M1003,65.3H1189c0,0,7-18.2-24.7-17.4c0,0-55.7-19-86,4.7C1078.4,52.6,1040.3,40.7,1003,65.3z"/>
	<path class="st7" d="M820,116.8h183c0,0,12.4-15.8-35.9-14.9c0,0-39.1-20.5-78.1,7.4C888.9,109.3,873.9,89.8,820,116.8z"/>
	<path class="st7" d="M820,192.8H257.5c0,0-30-22.1,24.8-48.2c0,0,53.4-14.3,61.2-6.5c0,0,182.4-61,261.8,26.2
		C605.3,164.2,770.3,122.4,820,192.8z"/>
	<path class="st7" d="M58.2,65.3h191.1c0,0-30.9-41.3-113-11C136.3,54.3,81.6,39.4,58.2,65.3z"/>
	<path class="st7" d="M1522.3,181.5H1203c0,0-21.7-27.6,62.7-26c0,0,68.2-35.8,136.3,12.9C1402.1,168.5,1428.3,134.4,1522.3,181.5z"
		/>
</g>
<g id="圖層_7">
	<path class="st8" d="M247.6,99.1c0,0,35.8-21.2,51.4-6.1c0,0,9.5-25.1,41.4-14c0,0-36.9-2.2-36.9,20.1
		C303.4,99.1,280,86.2,247.6,99.1z"/>
	<path class="st8" d="M90.5,46c0,0,30.2,0,31.3,19.6c0,0,24.6-5,31.3,17.9c0,0-12.9-21.2-34.6-11.2C118.5,72.3,111.8,46,90.5,46z"/>
	<path class="st8" d="M1310.5,79.3c0,0,40.7-8.5,50.6,10.9c0,0,17.1-20.7,43.6,0.2c0,0-34.2-14.1-41.4,7.1
		C1363.3,97.4,1345.3,77.6,1310.5,79.3z"/>
	<path class="st8" d="M1434.3,159c0,0,34.8-22.8,51.1-8.4c0,0,8.4-25.5,40.7-15.8c0,0-36.9-0.6-36,21.7
		C1490.1,156.5,1466.1,144.7,1434.3,159z"/>
</g>
<g id="圖層_9">
	<g>
		<line class="st9" x1="26.7" y1="174.6" x2="26.7" y2="190.6"/>
		<path class="st10" d="M25.4,182.6c0,0-14.2-18.4,0-33C25.4,149.6,45.3,170.4,25.4,182.6z"/>
	</g>
	<g>
		<line class="st11" x1="51" y1="168.2" x2="51" y2="186.1"/>
		<path class="st12" d="M49.4,177.2c0,0-17.2-20.6,0-37C49.4,140.1,73.5,163.4,49.4,177.2z"/>
	</g>
	<g>
		<line class="st13" x1="81.7" y1="283.1" x2="81.7" y2="301.1"/>
		<path class="st14" d="M79.8,292.1c0,0-21.7-20.6,0-37C79.8,255.1,110.1,278.4,79.8,292.1z"/>
	</g>
	<g>
		<line class="st9" x1="109.5" y1="282.6" x2="109.5" y2="300.5"/>
		<path class="st10" d="M107.8,291.5c0,0-19.1-20.6,0-37C107.8,254.5,134.6,277.8,107.8,291.5z"/>
	</g>
	<g>
		<line class="st15" x1="142.9" y1="283.1" x2="142.9" y2="301.1"/>
		<path class="st16" d="M141.5,292.1c0,0-14.7-20.6,0-37C141.5,255.1,162.1,278.4,141.5,292.1z"/>
	</g>
	<g>
		<line class="st9" x1="162.8" y1="283.7" x2="162.8" y2="301.6"/>
		<path class="st10" d="M161.7,292.7c0,0-12.4-20.6,0-37C161.7,255.7,179,279,161.7,292.7z"/>
	</g>
	<g>
		<line class="st9" x1="180.5" y1="287.5" x2="180.5" y2="301.1"/>
		<path class="st10" d="M179.4,294.3c0,0-12-15.5,0-28C179.4,266.3,196.2,283.9,179.4,294.3z"/>
	</g>
	<g>
		<line class="st9" x1="432.9" y1="320.9" x2="432.9" y2="338"/>
		<path class="st10" d="M431.8,329.4c0,0-12.4-19.5,0-35.2C431.8,294.3,449.2,316.4,431.8,329.4z"/>
	</g>
	<g>
		<line class="st17" x1="461.4" y1="315" x2="461.4" y2="335"/>
		<path class="st18" d="M459.9,325c0,0-16.6-22.9,0-41.3C459.9,283.7,483.1,309.7,459.9,325z"/>
	</g>
	<g>
		<line class="st9" x1="1549.5" y1="319.4" x2="1549.5" y2="332.3"/>
		<path class="st10" d="M1548.4,325.9c0,0-11.8-14.7,0-26.5C1548.4,299.4,1564.9,316.1,1548.4,325.9z"/>
	</g>
	<g>
		<line class="st9" x1="1572.5" y1="326.2" x2="1572.5" y2="337"/>
		<path class="st10" d="M1571.7,331.6c0,0-9.2-12.4,0-22.3C1571.7,309.3,1584.5,323.4,1571.7,331.6z"/>
	</g>
</g>
<g id="圖層_10">
	<path class="st19" d="M1639,352.7H1.3v124.7c13-2.1,36.6-0.1,55.7,2.2c0.3-0.1,0.6-0.1,0.9-0.1c11.8-0.8,23.6,0.9,35.4,1
		c0.3,0,0.5,0,0.7,0.1c39.4-9.3,217.1-0.3,244.5,1.2c1,0.1,1.3,1.4,0.4,1.9c5.9-3.1,135.5,13.6,186.5,20.3
		c9.9-0.2,19.8-0.6,29.7-0.3c37.7-7.8,169.4-14.9,176.2-15.2c0.2,0,0.3-0.1,0.5-0.2c7.9-4.9,107.1-5,112.1-5c0.1,0,0.2,0,0.4-0.1
		c8.8-3.6,189.5,10.3,191.7,10.5c0,0,0,0,0,0c63,1.6,219.1-12.7,260.3-15.6c4.6-0.8,9.2-1.8,13.7-3.3c0.4-0.1,0.7-0.2,1.1-0.2
		c24.4-9.7,111.2-3,111.2-3l57.3,6.7c5.2-0.9,10.7-0.5,15.8,0.1c0.2,0,0.5,0.1,0.7,0.1c29.7-7.1,130.8,6.9,142.7,8.5
		c0.6,0.1,1.1-0.4,1.1-1V353.7C1640,353.2,1639.6,352.7,1639,352.7z"/>
</g>
<g id="圖層_11">
	<linearGradient id="SVGID_1_" gradientUnits="userSpaceOnUse" x1="-4.1177" y1="405.7381" x2="1640" y2="405.7381">
		<stop  offset="0" style="stop-color:#0393B8"/>
		<stop  offset="0.4643" style="stop-color:#00D3E9"/>
		<stop  offset="0.4822" style="stop-color:#09D6E7"/>
		<stop  offset="0.5287" style="stop-color:#1ADCE4"/>
		<stop  offset="0.5867" style="stop-color:#25E0E2"/>
		<stop  offset="0.668" style="stop-color:#2CE2E0"/>
		<stop  offset="0.8936" style="stop-color:#2EE3E0"/>
	</linearGradient>
	<path class="st20" d="M1.3,351.8v96.4c70.4,22,804.2,5.5,804.2,5.5c1.8-25.5,834.5-27.3,834.5-27.3v-74.6H1.3z"/>
</g>
<g id="圖層_12">
	<ellipse class="st21" cx="70.1" cy="392.9" rx="14.3" ry="3"/>
	<ellipse class="st21" cx="51" cy="370.6" rx="14.3" ry="3"/>
	<ellipse class="st21" cx="142.9" cy="383.3" rx="13.2" ry="2.7"/>
	<ellipse class="st21" cx="119.7" cy="367.6" rx="13.2" ry="2.7"/>
	<ellipse class="st21" cx="211.2" cy="395.5" rx="12.2" ry="3.6"/>
	<ellipse class="st21" cx="199" cy="367.4" rx="12.2" ry="3.6"/>
	<ellipse class="st21" cx="383" cy="382.6" rx="14.1" ry="4.2"/>
	<ellipse class="st21" cx="354.8" cy="365.8" rx="14.1" ry="4.2"/>
	<ellipse class="st21" cx="461.4" cy="386.3" rx="14.1" ry="4.2"/>
	<ellipse class="st21" cx="425.8" cy="364.6" rx="14.1" ry="4.2"/>
	<ellipse class="st21" cx="759.1" cy="381.2" rx="14.1" ry="3.6"/>
	<ellipse class="st21" cx="745" cy="365.9" rx="14.1" ry="3.6"/>
	<ellipse class="st21" cx="820" cy="365.9" rx="14.1" ry="4"/>
	<ellipse class="st21" cx="867.3" cy="382.7" rx="14.1" ry="3.6"/>
	<ellipse class="st21" cx="1236.5" cy="363.8" rx="14.1" ry="3.6"/>
	<ellipse class="st21" cx="1196.3" cy="373.6" rx="14.1" ry="3.6"/>
	<ellipse class="st22" cx="1603.5" cy="365.9" rx="14.1" ry="3.6"/>
	<ellipse class="st22" cx="1577.4" cy="386.8" rx="14.1" ry="3.6"/>
	<ellipse class="st22" cx="1529.1" cy="363.8" rx="14.1" ry="3.6"/>
	<ellipse class="st22" cx="1512.4" cy="381.2" rx="14.1" ry="3.6"/>
	<ellipse class="st22" cx="1455.3" cy="367.4" rx="14.1" ry="3.6"/>
	<ellipse class="st21" cx="1279.9" cy="377.2" rx="14.1" ry="3.6"/>
	<ellipse class="st21" cx="1325.8" cy="367.4" rx="14.1" ry="3.6"/>
	<ellipse class="st21" cx="664.6" cy="383.3" rx="14.1" ry="3.6"/>
</g>
<g id="圖層_13">
	<path class="st23" d="M1468.7,492.3c-14.3-5.7-80.3-7.2-112.4-7.5c-0.7,0.5-1.7,0.8-2.8,0.8c-0.7,0-1.3-0.1-1.9-0.3
		c-6.3,2.2-12.8,3.3-19.4,3.4c-50.8,21.9-330.5,15.2-330.5,15.2c-40.8-24.8-442.8,15.2-442.8,15.2c-11.5,3.8-67.2,0-67.2,0
		c-94.7-33.8-442.8-17.8-490.4-15.5V624h1047.3c0.2,0,0.5-0.1,0.8-0.1H1640V503.9C1640,484.8,1468.7,492.3,1468.7,492.3z"/>
</g>
<g id="圖層_14">
	<path class="st24" d="M1357.8,503.9c0,0-365.9,33.4-371.7,9.5c0,0-463.7,9.6-486.7,22.9c0,0-340-55-498.1-10.1V624h148.5
		c0.5-0.1,1-0.2,1.5-0.2h931.8c0.8-0.8,1.9-1.2,3.4-1.2c3.3,0.1,6.5,0.5,9.6,1.2h0.2c0.5-2,2-3.6,4.7-3.6c2.6,0,4.2,1.6,4.7,3.6
		h39.9c0.4,0,0.9,0.1,1.2,0.2H1640V519.1C1640,519.1,1382.7,492.5,1357.8,503.9z"/>
</g>
<g id="圖層_16">
	<path class="st25" d="M1320.1,589.4c-2-0.8-3-2.9-2.9-5c-2.6-1.5-5-2.2-5-2.2c-8.3-9.8-215.3-4.6-215.3-4.6
		c-53.8,34.5-389.4,3.1-389.4,3.1c-64.6-42.2-573.7-25.3-573.7-25.3l-1.5,67.5c0,0,39.9,0.4,103,1.1h849.3c0.8-0.8,1.9-1.2,3.3-1.2
		c3.3,0.1,6.5,0.5,9.7,1.2h0.1c0.5-2,6.5-0.6,9.1-0.6c2.4,0-0.6-1.7,0,0c3-1.9,4.8-3.1,4.8-3.1l168.1-10.3c0.5-1.4,1.6-2.5,3.4-2.9
		c5.9-1.2,11.9-1.6,17.8-2.5c4.5-0.7,10.2-1.4,14-4.3c2.9-2.3,4.3-5.9,5.9-9.4C1320.5,590.3,1320.3,589.8,1320.1,589.4z"/>
</g>
<g id="圖層_17">
	<polygon class="st26" points="759.1,545.5 796.3,537.8 765.6,562.5 	"/>
	<polygon class="st26" points="974.7,602.3 992.7,591.3 974.7,572.1 960.7,572.1 960.7,587.2 	"/>
	<polygon class="st26" points="1378.6,550.2 1372.5,562.5 1394,573.2 1404.7,561.7 	"/>
	<polygon class="st26" points="263.8,554.4 256.1,534.7 234.1,549.1 231.6,562.9 246.5,565.5 	"/>
</g>
<g id="圖層_15">
	<path class="st27" d="M149.9,554.3l-45.2,17c0,0,61.1-49.1-7.3-41.2l-40,11.8c0,0-8.6-49.8-56,2V624H169
		C169,624,220.6,535.4,149.9,554.3z"/>
	<path class="st28" d="M186.1,592.9c0,0,27.7-70.7-44.8-11.8c0,0-14.2-39.6-64.4-9c0,0-6.4-50.5-75.6,6.7V624h222
		C223.3,624,243.4,573.3,186.1,592.9z"/>
	<path class="st27" d="M1640,623.9v-84.1c-30.5-39.3-67.5,0-67.5,0c-31.2-21.6-57.5,22.6-57.5,22.6c-66-6.7-46.2,59.3-45.6,61.4
		H1640z"/>
	<path class="st28" d="M1640,623.9v-61.4c-18.7-24.5-72.4,0-72.4,0c-30.2-22.6-41.1,10.7-41.1,10.7c-96.8-39.3-57.1,20-57.1,20
		c-52.7-13.1-50.5,29-50.4,30.7H1640z"/>
</g>
<g id="圖層_18">
	<path class="st29" d="M293.9,579.4h82.3h122.6c0,0,23.2,15.4,0,15.6c-23.2,0.3-204.9-0.5-204.9-0.5V579.4z"/>
</g>
<g id="圖層_19">
	
		<linearGradient id="SVGID_2_" gradientUnits="userSpaceOnUse" x1="1079.8817" y1="234.9672" x2="1269.1816" y2="234.9672" gradientTransform="matrix(1 0 0 -1 0 626)">
		<stop  offset="1.612103e-03" style="stop-color:#727171"/>
		<stop  offset="0.4692" style="stop-color:#6D6B6B"/>
		<stop  offset="0.8459" style="stop-color:#727171"/>
	</linearGradient>
	<path class="st30" d="M1079.9,429.9c0,0,95.3-175,189.3,0H1079.9z"/>
	<path class="st7" d="M1213,294.1c-2.6,12.9-22.4,4-22.4,4c-9.8-0.2-9.4-35.1-8.6-52.7c3.3-0.9,10.8-0.2,9-2.9
		c-0.1,0.7-8.9,0.4-8.7-3.3c0,0-1-1.3-1.2-2c-0.1-0.4,0.1,0.4,0,0c0-0.3-1.5-1.2,0,0c3.9,3.2,11.6-2.2,10-1.4
		c-1.7,0.8-10.1-0.6-10.5-1.1c-0.3-0.3,0.3,0.3,0,0c-0.4-0.5-1.7-1.8-2-2.4c-1.3-0.2,5.1,0.7,9.1-1c-1.7-1.7-7.3-0.8-12.4-5.1
		c-19.5-16.6-38.3,4.2-41.5,8.4c-0.1,0.3-0.2,0.7-0.3,1s-0.2,0.6-0.4,0.8c-19.5,117.9,59.3,93.2,59.3,93.2
		C1216.6,335.3,1213,294.1,1213,294.1z"/>
	<path class="st31" d="M1162.2,302.6l33.1,5.7c0,0-12.1,23.3-24.9,14.3l13.6-15.5l11.3,1.2l-6.9-1.2"/>
	<polygon class="st32" points="1132.4,241.6 1109.6,250.2 1130.6,261.7 	"/>
	<circle class="st33" cx="1154" cy="237.3" r="1.6"/>
	<line class="st34" x1="1171.7" y1="332.1" x2="1171.7" y2="353.5"/>
	<line class="st34" x1="1187.8" y1="330.5" x2="1187.8" y2="353.5"/>
	<path class="st35" d="M1154.9,363.9c-1.5-1.1-2.3-2.4-2.2-3.8c1.6-0.4,3.5-0.5,5.3-0.3c0,0.7,0.7,1.4,1.1,2c0.4,0.7,0.5,1.5-0.5,2
		s-3.2,0.3-3.1-0.4"/>
	<path class="st35" d="M1182,359.8c-0.8,0.1-1.3-0.6-1.3-1.2c0.1-2,4-3.2,6-1.9c2,1.3,0.9,4.3-1.8,4.6c-1.6-0.7-3.2-1.4-4.8-2.1"/>
	<path class="st35" d="M1172.5,363c-0.7,0.1-1.1-0.6-1.1-1.2c0.1-2.1,3.4-3.4,5.1-2s0.7,4.5-1.6,4.9c-1.4-0.7-2.7-1.5-4.1-2.2"/>
	<path class="st35" d="M1164.3,358.3c-0.5,0.1-0.9-0.6-0.8-1.1c0.1-1.8,2.7-2.9,4-1.7c1.3,1.2,0.6,3.9-1.2,4.2
		c-1.1-0.6-2.1-1.3-3.2-1.9"/>
	<path class="st35" d="M1195.1,364.3c-0.5,0.1-0.9-0.8-0.8-1.5c0.1-2.5,2.7-4,4-2.4c1.4,1.7,0.6,5.4-1.2,5.8
		c-1.1-0.9-2.1-1.8-3.2-2.6"/>
	<g>
		<rect x="387.8" y="367.6" class="st36" width="21.5" height="214"/>
		<path class="st37" d="M458.2,487.2H338.9c-6.6,0-12-5.4-12-12v-80.1c0-6.6,5.4-12,12-12h119.2c6.6,0,12,5.4,12,12v80.1
			C470.2,481.8,464.8,487.2,458.2,487.2z"/>
		<g>
			<ellipse class="st38" cx="398.6" cy="433.4" rx="47.8" ry="44.6"/>
			<path class="st7" d="M433.7,431.2c0-17.4-15.1-31.5-33.8-31.5c-9.1,0-17.4,3.4-23.5,8.8l47.2,45
				C429.9,447.9,433.7,440,433.7,431.2z"/>
			<path class="st7" d="M373.3,413.9c-6.3,5.7-10.2,13.6-10.2,22.4c0,17.2,15,31.2,33.4,31.2c9.2,0,17.4-3.4,23.5-9L373.3,413.9z"/>
		</g>
		<path class="st39" d="M392.2,424.3l10-10.4c0,0,11.9,5.8,8.8,13.6l-7.1,7.7L392.2,424.3z"/>
	</g>
	<path class="st7" d="M1180.7,244.7c-0.6-1.3,12.5-1.9,13.2-3.2c0.5,0.6-12.1-0.1-12.9-3"/>
</g>
<g id="圖層_20_1_">
	<path class="st39" d="M386.8,426.4c-0.1,0.1-7.8,2.4-8.4,4.3c0,0-1.5,2.6,0.1,2.6c1.6,0,1.6,0,1.6,0l1.2-1.7l2.5-1.4l0.4,2.3
		l-8.9,5.5c0,0-2.4,4,0.3,3.5c2.8-0.4,8-4.3,8-4.3l0.5,2.2l-8.2,4.8c0,0-2.3,4-0.1,3.3s15.2-10.7,15.7-6.8c0,0,1.9,3.4,0,6.1
		c-2,2.7-2.1,2.6-2.1,2.6s-0.8,7,2.6,1.9c2.8-4.2,6.1-9.4,7.2-12.3C395.2,434.7,391.1,430.3,386.8,426.4z"/>
	<path class="st39" d="M378.8,449.8c-1.8,1-2.7,2.7-2.1,4.2c0.5,1.4,2.2,2.7,4.6,3.3c1,0.3,2,0.3,2.9,0c0.5-0.3,1-0.6,1.2-1
		c1.7-2.2,1-4.9-1.7-6.6c-1.9,0.1-3.8,0.3-5.7,0.4"/>
</g>
</svg>
