<?xml version="1.0" encoding="iso-8859-1"?>
<!-- Generator: Adobe Illustrator 19.0.0, SVG Export Plug-In . SVG Version: 6.00 Build 0)  -->
<svg version="1.1" id="Layer_1" xmlns="http://www.w3.org/2000/svg" xmlns:xlink="http://www.w3.org/1999/xlink" x="0px" y="0px"
	 viewBox="0 0 505 505" style="enable-background:new 0 0 505 505;" xml:space="preserve">
<circle style="fill:#FFD05B;" cx="252.5" cy="252.5" r="252.5"/>
<path style="fill:#FFFFFF;" d="M185.7,347.3l-25.7,5c-1,0.2-1.9-0.5-2.1-1.4l-6.8-34.9c-0.2-1,0.5-1.9,1.4-2.1l25.7-5
	c1-0.2,1.9,0.5,2.1,1.4l6.8,34.9C187.4,346.2,186.7,347.1,185.7,347.3z"/>
<path style="fill:#324A5E;" d="M165.7,273.2c0,0-1.2,48.4,15.6,93.8c5.3,14.4-2.1,31.5-13.9,31.5h-17.1c-7.6,0-14-7.4-15.4-17.6
	c-3.8-28.5-10.2-84-6-107.7H165.7z"/>
<g>
	<circle style="fill:#FF7058;" cx="384.9" cy="234.7" r="38.5"/>
	<path style="fill:#FF7058;" d="M183,184.4h-51.1c-27.8,0-50.3,22.5-50.3,50.3l0,0c0,27.8,22.5,50.3,50.3,50.3H183V184.4z"/>
</g>
<path style="fill:#FFFFFF;" d="M373.5,109.4c-66.6,79.3-190.5,75-190.5,75V285c0,0,123.9-4.4,190.5,75c6.4,7.6,18.9,2.9,18.9-7
	V116.4C392.4,106.4,379.9,101.8,373.5,109.4z"/>
<g>
</g>
<g>
</g>
<g>
</g>
<g>
</g>
<g>
</g>
<g>
</g>
<g>
</g>
<g>
</g>
<g>
</g>
<g>
</g>
<g>
</g>
<g>
</g>
<g>
</g>
<g>
</g>
<g>
</g>
</svg>
