<?xml version="1.0" encoding="utf-8"?>
<!-- Generator: Adobe Illustrator 24.1.3, SVG Export Plug-In . SVG Version: 6.00 Build 0)  -->
<svg version="1.1" xmlns="http://www.w3.org/2000/svg" xmlns:xlink="http://www.w3.org/1999/xlink" x="0px" y="0px"
	 viewBox="0 0 1640 624" style="enable-background:new 0 0 1640 624;" xml:space="preserve">
<style type="text/css">
	.st0{fill:#B0D7ED;}
	.st1{opacity:0.5;}
	.st2{fill:#94E0B3;}
	.st3{fill:#AFE8CA;}
	.st4{fill:#C4E8F7;}
	.st5{fill:#C1E0D5;}
	.st6{display:none;}
	.st7{display:inline;fill:#826046;}
	.st8{display:inline;fill:#C9A183;}
	.st9{display:inline;fill:#F2A566;stroke:#000000;stroke-miterlimit:10;}
	.st10{display:inline;fill:#221C23;}
	.st11{display:inline;fill:#EAB9DB;}
	.st12{display:inline;fill:#EA8C47;}
	.st13{display:inline;fill:#B54E15;}
	.st14{fill:#749FAF;}
	.st15{fill:#AD8663;}
	.st16{fill:#F7CEB2;}
	.st17{fill:#2B2826;}
	.st18{fill:none;stroke:#2B2826;stroke-miterlimit:10;}
	.st19{fill:#E5E188;stroke:#918883;stroke-miterlimit:10;}
	.st20{fill:#E5E188;stroke:#8C8580;stroke-miterlimit:10;}
	.st21{fill:none;stroke:#938C86;stroke-miterlimit:10;}
	.st22{fill:#E5E188;stroke:#99918C;stroke-miterlimit:10;}
	.st23{opacity:0.9;}
	.st24{opacity:0.8;}
	.st25{opacity:0.7;}
</style>
<g id="山">
</g>
<g id="雲">
</g>
<g id="陰影">
</g>
<g id="山山">
	<path class="st0" d="M825.2,536.9"/>
	<g class="st1">
		<path class="st2" d="M1034.9,303.4c0,0,168.6-632.1,338.2-4.1c0.3,1,0.6,2.1,1,3.1l87.2,235.6H951.9L1034.9,303.4z"/>
		<path class="st3" d="M1268.2,49.1c-60.7-61.4-114.2-11.9-125.6,0.2c-6.6,10.2-13.5,20.6-20.2,31.1c-14.2,28.9-32.8,72.8-43.5,98.5
			c-1.8,4.8-3.7,9.4-5.8,14c-0.7,1.7-1.3,3.1-1.7,4.2c-0.7,1.7-1,3.4-1,5.3v41.8c0,6.5,3,12.7,8.2,16.6c7.9,5.9,20.3,10.6,30.7-4.7
			c1.3-1.9,2-4.1,2-6.4l1-35.5v-6c0-4.1,2.1-8,5.6-10.2c6.4-4,17.1-7.7,25.6,4.3l1.3,3c1.4,3.1,2.1,6.5,2.1,9.9v67.9
			c0,6,3.1,11.5,8.2,14.6c6,3.5,14.5,5.7,23.5-1.6c3.3-2.7,5.2-6.8,5.2-11v-93.5c0-3.3,1.1-6.5,3.2-9.1c5.2-6.5,16.3-15.7,29.3,0
			c2.2,2.7,3.4,6.2,3.4,9.7v49.1c0,5.4,2.9,10.4,7.6,13.1c6.3,3.5,15.4,6.2,23.7-0.8c3.6-3,5.6-7.5,5.6-12.2v-26.8
			c0-5.1,2.8-9.8,7.3-12.2c6.5-3.5,16.4-6.7,24.6-0.7c4.4,3.1,6.7,8.3,6.7,13.7c0,8.6,0,24.7,0,34.4c0,5.9,3,11.5,8.1,14.5
			c5.8,3.5,13.7,6.1,20.5,0.6c4.1-3.2,6.2-8.4,6.2-13.6v-64.3C1322.1,118.9,1268.2,49.1,1268.2,49.1z"/>
	</g>
	<g>
		<path class="st2" d="M899.1,363.5c0,0,124.1-468.5,249-3c0.2,0.8,0.5,1.5,0.8,2.3l64.2,174.6H838L899.1,363.5z"/>
		<path class="st3" d="M1070.8,175.1c-44.7-45.5-84-8.8-92.4,0.2c-4.9,7.6-10,15.2-14.8,23c-10.4,21.4-24.2,53.9-32.1,73
			c-1.3,3.5-2.8,7-4.3,10.4c-0.5,1.3-0.9,2.3-1.3,3.1c-0.5,1.2-0.8,2.6-0.8,3.9v31c0,4.8,2.2,9.4,6,12.3c5.8,4.4,14.9,7.8,22.6-3.5
			c0.9-1.4,1.4-3.1,1.5-4.8l0.7-26.3v-4.4c0-3.1,1.5-5.9,4.1-7.5c4.7-3,12.6-5.7,18.8,3.2l1,2.2c1,2.3,1.6,4.8,1.6,7.3v50.3
			c0,4.4,2.3,8.5,6.1,10.8c4.4,2.6,10.7,4.2,17.3-1.2c2.4-2,3.9-5,3.9-8.2v-69.3c0-2.4,0.8-4.8,2.4-6.7c3.9-4.8,12-11.7,21.6,0
			c1.7,2,2.5,4.6,2.5,7.2v36.4c0,4,2.1,7.7,5.6,9.7c4.6,2.6,11.3,4.6,17.5-0.6c2.6-2.2,4.1-5.6,4.1-9v-19.8c0-3.8,2.1-7.2,5.4-9
			c4.8-2.6,12-4.9,18.1-0.6c3.2,2.3,5,6.2,5,10.2c0,6.4,0,18.3,0,25.5c0,4.4,2.2,8.5,6,10.8c4.2,2.6,10.1,4.5,15.1,0.4
			c3-2.4,4.6-6.2,4.6-10.1v-47.6C1110.5,226.8,1070.8,175.1,1070.8,175.1z"/>
	</g>
	<g>
		<path class="st2" d="M1293.6,392.7c0,0,111.5-389.9,223.7-2.5c0.2,0.6,0.4,1.3,0.7,1.9l57.7,145.3h-336.9L1293.6,392.7z"/>
		<path class="st3" d="M1447.9,235.9c-40.2-37.8-75.5-7.3-83.1,0.1c-4.4,6.3-9,12.7-13.3,19.2c-9.4,17.8-21.7,44.9-28.8,60.7
			c-1.2,2.9-2.5,5.8-3.8,8.6c-0.5,1.1-0.9,1.9-1.1,2.6c-0.5,1-0.7,2.1-0.7,3.2v25.8c0,4,2,7.9,5.4,10.2c5.2,3.6,13.4,6.5,20.3-2.9
			c0.9-1.2,1.3-2.5,1.3-4l0.7-21.9V334c0-2.5,1.4-4.9,3.7-6.3c4.2-2.5,11.3-4.7,16.9,2.7l0.9,1.9c0.9,1.9,1.4,4,1.4,6.1v41.9
			c0,3.7,2.1,7.1,5.4,9c3.9,2.2,9.6,3.5,15.6-1c2.2-1.7,3.5-4.2,3.5-6.8v-57.7c0-2,0.7-4,2.1-5.6c3.5-4,10.8-9.7,19.4,0
			c1.5,1.7,2.3,3.8,2.3,6v30.3c0,3.3,1.9,6.4,5.1,8.1c4.1,2.2,10.2,3.8,15.7-0.5c2.4-1.9,3.7-4.6,3.7-7.5V338c0-3.1,1.8-6,4.8-7.5
			c4.3-2.2,10.8-4.1,16.3-0.5c2.9,1.9,4.4,5.1,4.4,8.5c0,5.3,0,15.2,0,21.2c0,3.7,2,7.1,5.4,9c3.8,2.1,9.1,3.7,13.6,0.4
			c2.7-2,4.1-5.2,4.1-8.4V321C1483.5,278.9,1447.9,235.9,1447.9,235.9z"/>
	</g>
	<path class="st0" d="M911.4,41.3c0,0-9.7,5.1,0,8.7h66c0,0,10.2-19.5-19.4-15.9C958,34.1,929.4,0.9,911.4,41.3z"/>
	<path class="st4" d="M1053.7,91.3c0,0-15.9,8.4,0,14.2h107.8c0,0,16.6-31.8-31.7-25.9C1129.8,79.5,1083,25.2,1053.7,91.3z"/>
	<path class="st0" d="M1412.6,95.6c0,0-11,5.8,0,9.9h74.9c0,0,11.6-22.1-22-18C1465.5,87.5,1433,49.7,1412.6,95.6z"/>
	<path class="st4" d="M1389.7,164.1c0,0,21.4,11.3,0,19.2h-145.3c0,0-22.4-42.9,42.7-35C1287.1,148.3,1350.2,75,1389.7,164.1z"/>
	<path class="st5" d="M828.9,513c0,0-62.3,23.9,0,38.3l51,8.4c0,0,38.5,15.5,0,32.3c0,0-39.2,15.1-52.6,15.3c-2.4,0-7.3,3.4-8.5,5.6
		c-1.5,3-0.7,7.1,11.5,10.6h634.8c0,0,88.5,1,94-6.1c0,0,80.2-8.7,3.1-33.4l-157-29.1c0,0-12.4-16,12.4-17.4c0,0,140.5,16,159.7,5.1
		c0,0,49.6-26.2-15.8-41.4C1561.5,501.1,883.8,470.1,828.9,513z"/>
</g>
<g id="圖層_5" class="st6">
	<path class="st7" d="M974.5,609.5c0,0-61.5,11.4-51.3-60c0,0,3.3-15.3,18.1-26.1c0,0,17.4-12.3,2.8-24.3c0,0-7.9-3.5-11.1-0.5
		c0,0,7.2-46.3,55.2-22.4c0,0,17.1,10.6,6.5,31.7l-9.7,29.8L974.5,609.5z"/>
	<path class="st7" d="M1053.5,522.1c0.2-0.3,0.5-0.7,0.8-1c0.3-0.3,0.6-0.7,1-1.4c0.4-0.7,0.8-1.4,1.2-2.1c0.1-0.1,0.1-0.3,0.2-0.4
		c1.4-4.4,1.7-12.5-3.9-26.5c-10.3-26.2-15.1-23.6-15.1-23.6s-11.6-9.5-34.4-0.2c0,0-12,9.2-14.2,19.3c0,0-13.3,27.4-3.9,34.6
		l3.5,2.7c3.9,3,8.5,5.2,13.4,6.3l15.5,3.5c0,0,20.9,3.8,35.6-11C1053.3,522.3,1053.4,522.2,1053.5,522.1z"/>
	<path class="st7" d="M996.3,475.7c0,0-7.9-5-2.6-16.4c0,0,9-0.4,12.4,7.4L996.3,475.7z"/>
	<path class="st8" d="M998.4,472.7c0,0-3.7-4.2-1.5-7.5c0,0,2.1-2.3,6.4,3.7C1003.3,468.9,999.1,473.7,998.4,472.7z"/>
	<path class="st7" d="M1036.9,466.7c0,0,2.5-7.3,12.2-7.1c0,0,4.8,8.5-2.6,16.3C1046.5,476,1039.7,467.1,1036.9,466.7z"/>
	<path class="st8" d="M1040.4,467.8c0,0,2.9-4,5.2-2.5c0,0,3.1,0.9-0.8,7.1L1040.4,467.8z"/>
	<path class="st8" d="M1006,466.4c0,0,14.2,8.8,15.5,27.2l2.3,0c0,0,1.5-20.9,13.5-26.9C1037.3,466.6,1026.5,456.9,1006,466.4z"/>
	<path class="st9" d="M1006,493.5"/>
	<ellipse class="st10" cx="1006" cy="496.3" rx="2" ry="2.8"/>
	<ellipse class="st10" cx="1036.2" cy="496.3" rx="2" ry="2.8"/>
	<path class="st10" d="M1019.5,493.9c0,0-2.4-0.1-2,3.1c0,0,2.4,3.6,4.2,3.3l1.4,0c0,0,2.7-1,3.4-2.8c0,0,1.9-1.6,0-3.1
		C1026.4,494.4,1026.2,492.9,1019.5,493.9z"/>
	<path class="st10" d="M1021.7,500.3c0,0-0.5,1.5,0,3c0,0-3.1-0.3-2.9-0.7s-0.9,0.8,0,1.1c0,0,2,1.5,4.7,0.7c0,0,2.3-0.1,2.7-1.5
		c0,0-0.1-0.9-1.4,0l-1.8,0.4c0,0,0.3-2,0.1-3L1021.7,500.3z"/>
	<ellipse class="st11" cx="1003.8" cy="502.9" rx="4.2" ry="2.4"/>
	<ellipse class="st11" cx="1038.3" cy="503.4" rx="4.2" ry="2.4"/>
	<path class="st8" d="M1002.5,528.8c0,0,29.4,9.6,40.3-0.7c0,0,11.8,14.7,2.6,24.7c0,0-9.2,11.9-34.8,2.9
		C1010.6,555.8,989.4,551.7,1002.5,528.8z"/>
	<path class="st8" d="M1055.8,566.3c-0.7-1.9-0.8-4-1.5-5.9c-0.2-0.7-0.3-1.4-0.1-2.1c-0.1-0.8,0.1-1.6,0.5-2.3
		c0-0.1,0.1-0.2,0.1-0.3c0.3-0.5,0.8-1,1.3-1.4c-0.7-3.2-1.3-5.1-1.3-5.1l-11.9,7.6c-26.5,6.1-8.4-13.4-8.4-13.4
		c-9.8,7.3-28.4,2.5-28.4,2.5c6.1,10.5-8.5,12.3-8.5,12.3c-8,3.3-22.6-6.9-22.6-6.9l0.1,16.8c42.9-1.8,35,53.7,35,53.7
		c2.8-0.1,4.9,0.4,6.5,1.1c1.9-0.8,3.8-1.6,5.9-2.1c2.9-0.7,5.6-0.5,8.5-0.8c5.8-0.6,11-4.2,15.7-7.3c0.6-0.4,1.2-0.6,1.8-0.7
		c9.7-12.7,10.9-29.7,9.9-42.8C1057.2,568.5,1056.3,567.5,1055.8,566.3z"/>
	<path class="st12" d="M1025.8,539.5c0,0-6.6-1.2-14.1,6.2c0,0-6.5,7.1,2.8,8.4c0,0,17.3,3.4,27.4,0.6c0,0,6.2-2.4,1.1-8.7
		c0,0-5.8-7.3-14.8-6.4l-0.1-4.1c0,0-0.6-2.9-2.8,0L1025.8,539.5z"/>
	<path class="st13" d="M1012.3,553.6c0,0-2.4,19.7,12.3,24.6c0,0,18.5,4.9,17.4-23.4"/>
	<path class="st7" d="M992.5,524.6c0,0-66,77.3,2,98.1c0,0,27.8,1.9,37.9-0.3c0,0,2.7-9-8.4-10.1c0,0,8.8-35.6-27.1-38.5
		c0,0-2.5-11.6-0.1-12c0,0,9.1,5.2,16.9,4.7c0,0,7.2-1.8,7.7-3.1c0,0,5-5.2-7.6-8.1c0,0-23-4.9-9-26.8
		C1004.9,528.4,992.7,526,992.5,524.6z"/>
	<path class="st7" d="M1051.6,523.4c0,0,14.3,12.8,7.8,28.7c0,0-6,13.2-16.3,14.2c0,0-16,3.7-5.4-10.2c0,0,14.6-4.5,8.8-16.9
		l-4.7-10.6L1051.6,523.4z"/>
	<path class="st7" d="M1071.8,615.7c0,0-24.2,4.9-31.8,0.7c0,0,22.7-7.1,15.9-49.6c0,0,23.3,17.8,4.7,39.7c0,0,9.1-0.7,10.9,8
		c0.1,0.6,0.2,1.3,0.3,2"/>
	<path class="st13" d="M1083.5,614.2c0,0,8.3,4.1,12.7-1.4c0,0,5-7.2-7.7-11.1"/>
	<path class="st12" d="M1080.2,606.6c0,0-1.5,2.6,0.6,7c0,0,2.1,3.9,4.1,0.1c0,0,4.1-6.9,4.4-11.6c0,0-0.1-3-3.6-1.8
		c0,0-4.1,1.3-5,5.3l-1.8-0.6c0,0-1.4-0.2-0.4,1.2L1080.2,606.6z"/>
	<path class="st13" d="M1104,597c0,0-6.3,10.2,0.3,16.5c0,0,8.6,7.3,15.2-8.5"/>
	<path class="st12" d="M1114.1,593.7c0,0-3.2-2.3-9.1-0.1c0,0-5.3,2.2-0.7,5.3c0,0,8.4,6.2,14.4,7.2c0,0,3.9,0.2,2.8-4.5
		c0,0-1.2-5.4-6.2-7.2l1-2.2c0,0,0.4-1.7-1.5-0.7L1114.1,593.7z"/>
	<path class="st13" d="M1140.8,602.6c0,0,2.3,14.7,13.6,15.4c0,0,14-0.1,7.5-20.4"/>
	<path class="st12" d="M1147.7,591.3c0,0-4.9,0.5-8.6,7.3c0,0-3.2,6.4,3.6,5.5c0,0,12.9-0.9,19.4-5c0,0,3.9-2.9-1-6.5
		c0,0-5.5-4.1-11.7-1.7l-0.9-2.9c0,0-1-2-2,0.6L1147.7,591.3z"/>
	<path class="st13" d="M1180.9,600.1c0,0-12.1-0.2-14.1,9.3c0,0-1.7,11.9,15.4,9.3"/>
	<path class="st12" d="M1189.1,607.6c0,0,0.3-4.2-4.8-8.4c0,0-4.7-3.6-4.9,2.3c0,0-0.9,11.1,1.5,17.2c0,0,1.9,3.7,5.4,0.1
		c0,0,4-4.1,2.9-9.6l2.5-0.3c0,0,1.7-0.6-0.2-1.8L1189.1,607.6z"/>
</g>
<g id="圖層_8">
</g>
<g id="圖層_6">
</g>
<g id="圖層_7">
	<g>
		<path class="st14" d="M926.9,564.1c4.3-3.9,11.6-7.6,15.9,5.3c0.2,0.6,0.3,1.2,0.2,1.8c-1.3,26-2.8,48.6-2.8,48.6
			s8.6,5.3,11.8,1.3c1.2-5.8,5.5-48.6,5.5-48.6s2.8-28-8.3-30.2c-4.7-0.9-8.7-1.4-11.7-1.7c-5.1-0.5-10.1,1.2-13.8,4.8
			c-3,2.9-5.3,7-3.7,12l1.7,5.3C922.3,564.9,925.1,565.7,926.9,564.1z"/>
		<path class="st15" d="M1025.5,580.3c0,0,3.9,25.5,5.8,26.8c0,0-15.4-3.5-17.9,3.9c0,0-4.7,8.3,2.3,10.5c0,0,30.6,4.4,34.5,0.1
			c3.9-4.3,5.4-43.2,5.4-43.2L1025.5,580.3z"/>
		<path class="st15" d="M981.2,578.8c0,0,3.9,25.5,5.8,26.8c0,0-15.4-3.5-17.9,3.9c0,0-4.7,8.3,2.3,10.5c0,0,30.6,4.4,34.5,0.1
			c3.9-4.3,5.4-43.2,5.4-43.2L981.2,578.8z"/>
		<path class="st15" d="M1020.7,596.3h-9.3c-39.6,0-64.3-42.8-44.5-77.1l4.6-8l4.6-8c19.8-34.3,69.3-34.3,89,0l4.6,8l4.6,8
			c19.8,34.3-4.9,77.1-44.5,77.1H1020.7z"/>
		<circle class="st15" cx="986.3" cy="425.4" r="20.8"/>
		<circle class="st15" cx="1056.2" cy="425.4" r="20.8"/>
		<circle class="st16" cx="986.3" cy="425.4" r="14.2"/>
		<circle class="st16" cx="1056.2" cy="425.4" r="14.2"/>
		<path class="st15" d="M1020.7,496.5h-5.6c-31.1,0-50.5-33.7-35-60.6l2.8-4.8l2.8-4.8c15.6-26.9,54.4-26.9,70,0l2.8,4.8l2.8,4.8
			c15.6,26.9-3.9,60.6-35,60.6H1020.7z"/>
		<path class="st17" d="M996.7,439.2c0,0.2-0.1,0.4-0.1,0.7c0,2.7,1.7,4.8,3.8,4.8c2.1,0,3.8-2.2,3.8-4.8c0-1.5-0.5-2.8-1.3-3.6
			L996.7,439.2z"/>
		<path class="st17" d="M1045.7,439.2c0,0.2,0.1,0.4,0.1,0.7c0,2.7-1.7,4.8-3.8,4.8s-3.8-2.2-3.8-4.8c0-1.5,0.5-2.8,1.3-3.6
			L1045.7,439.2z"/>
		<path class="st17" d="M1016.6,446.7l-2,3.4c-1.8,3.1,0.4,7,4,7h3.9c3.6,0,5.8-3.9,4-7l-2-3.4
			C1022.9,443.6,1018.4,443.6,1016.6,446.7z"/>
		<line class="st18" x1="1020.3" y1="457.1" x2="1020.3" y2="469.1"/>
		<ellipse class="st17" cx="1020.3" cy="471.4" rx="2.1" ry="2.9"/>
		<circle class="st16" cx="1020.7" cy="540.6" r="45.9"/>
		<path class="st15" d="M989.5,487.4c0,0-45.9,31.7-43.2,51.7c0.1,0.5,0.2,1,0.3,1.5c5.4,19.9,13.3,0,13.3,0L989.5,487.4z"/>
		<path class="st15" d="M1051,487.4c0,0,45.9,31.7,43.2,51.7c-0.1,0.5-0.2,1-0.3,1.5c-5.4,19.9-13.3,0-13.3,0L1051,487.4z"/>
		<g>
			<path class="st19" d="M1022,393.7c-0.1,0.1-0.2,0.1-0.3,0.2c-0.4,0.2-0.9,0.3-1.4,0.3c-0.5,0-1-0.1-1.4-0.3
				c-0.1,0-0.2-0.1-0.3-0.2c-14.9,0.9-26.6,12.4-26.6,26.5c0,0.3,0,0.5,0,0.8h56.8c0-0.3,0-0.5,0-0.8
				C1048.7,406.1,1036.9,394.5,1022,393.7z"/>
			<ellipse class="st20" cx="1020.3" cy="422.4" rx="36.9" ry="5"/>
			<path class="st21" d="M1019.6,394.4c-5.4,6-10.5,14.7-8.1,23"/>
			<path class="st21" d="M999.7,418.3c0.6-11.3,8.9-19.9,19-24"/>
			<path class="st21" d="M1022.1,394.2c10.6,3.6,17.3,13.2,18.8,24.1"/>
			<path class="st21" d="M1026.3,417.4c3.2-7.9-0.4-16.7-5.4-23"/>
			<ellipse class="st22" cx="1020.3" cy="393.1" rx="2.5" ry="1.9"/>
		</g>
	</g>
</g>
<g id="圖層_9">
	<g class="st23">
		
			<ellipse transform="matrix(0.9851 -0.1721 0.1721 0.9851 -83.182 201.0587)" class="st17" cx="1117.8" cy="580.2" rx="7.8" ry="9.4"/>
		
			<ellipse transform="matrix(0.9851 -0.1721 0.1721 0.9851 -85.338 199.4753)" class="st17" cx="1107.6" cy="591.8" rx="2.6" ry="3.7"/>
		
			<ellipse transform="matrix(0.9851 -0.1721 0.1721 0.9851 -83.8328 198.6074)" class="st17" cx="1103.3" cy="582.7" rx="2.6" ry="3.7"/>
		
			<ellipse transform="matrix(0.9851 -0.1721 0.1721 0.9851 -82.0161 198.5934)" class="st17" cx="1104.1" cy="572.2" rx="2.6" ry="3.7"/>
	</g>
	<g class="st23">
		
			<ellipse transform="matrix(0.9753 -0.221 0.221 0.9753 -103.6513 271.3803)" class="st17" cx="1160.9" cy="598.9" rx="7.8" ry="9.4"/>
		
			<ellipse transform="matrix(0.9753 -0.221 0.221 0.9753 -106.571 269.5552)" class="st17" cx="1151.2" cy="611" rx="2.6" ry="3.7"/>
		
			<ellipse transform="matrix(0.9753 -0.221 0.221 0.9753 -104.7224 268.2964)" class="st17" cx="1146.5" cy="602.1" rx="2.6" ry="3.7"/>
		
			<ellipse transform="matrix(0.9753 -0.221 0.221 0.9753 -102.3918 268.1037)" class="st17" cx="1146.8" cy="591.6" rx="2.6" ry="3.7"/>
	</g>
	<g class="st24">
		
			<ellipse transform="matrix(0.9094 -0.416 0.416 0.9094 -123.5793 541.9763)" class="st17" cx="1182.1" cy="554.6" rx="6.4" ry="7.6"/>
		
			<ellipse transform="matrix(0.9094 -0.416 0.416 0.9094 -128.7669 540.6548)" class="st17" cx="1176.4" cy="565.9" rx="2.1" ry="3"/>
		
			<ellipse transform="matrix(0.9094 -0.416 0.416 0.9094 -126.6248 537.916)" class="st17" cx="1171.2" cy="559.6" rx="2.1" ry="3"/>
		
			<ellipse transform="matrix(0.9094 -0.416 0.416 0.9094 -123.2645 536.5278)" class="st17" cx="1169.7" cy="551.2" rx="2.1" ry="3"/>
	</g>
	<g class="st24">
		
			<ellipse transform="matrix(0.9094 -0.416 0.416 0.9094 -125.5228 560.2249)" class="st17" cx="1223" cy="568.2" rx="6.6" ry="7.9"/>
		
			<ellipse transform="matrix(0.9094 -0.416 0.416 0.9094 -130.9158 558.8511)" class="st17" cx="1217.1" cy="579.9" rx="2.2" ry="3.2"/>
		
			<ellipse transform="matrix(0.9094 -0.416 0.416 0.9094 -128.6889 556.0037)" class="st17" cx="1211.7" cy="573.3" rx="2.2" ry="3.2"/>
		
			<ellipse transform="matrix(0.9094 -0.416 0.416 0.9094 -125.1955 554.5605)" class="st17" cx="1210.1" cy="564.6" rx="2.2" ry="3.2"/>
	</g>
	<g class="st25">
		
			<ellipse transform="matrix(0.9094 -0.416 0.416 0.9094 -106.6326 566.3059)" class="st17" cx="1246.4" cy="527.9" rx="4.9" ry="5.8"/>
		
			<ellipse transform="matrix(0.9094 -0.416 0.416 0.9094 -110.5843 565.2992)" class="st17" cx="1242.1" cy="536.4" rx="1.6" ry="2.3"/>
		
			<ellipse transform="matrix(0.9094 -0.416 0.416 0.9094 -108.9525 563.2128)" class="st17" cx="1238.1" cy="531.7" rx="1.6" ry="2.3"/>
		
			<ellipse transform="matrix(0.9094 -0.416 0.416 0.9094 -106.3927 562.1553)" class="st17" cx="1237" cy="525.3" rx="1.6" ry="2.3"/>
	</g>
	<g class="st25">
		
			<ellipse transform="matrix(0.9094 -0.416 0.416 0.9094 -107.2362 583.8562)" class="st17" cx="1286.4" cy="538" rx="4.9" ry="5.8"/>
		
			<ellipse transform="matrix(0.9094 -0.416 0.416 0.9094 -111.1879 582.8495)" class="st17" cx="1282.1" cy="546.6" rx="1.6" ry="2.3"/>
		
			<ellipse transform="matrix(0.9094 -0.416 0.416 0.9094 -109.5561 580.7631)" class="st17" cx="1278.1" cy="541.8" rx="1.6" ry="2.3"/>
		
			<ellipse transform="matrix(0.9094 -0.416 0.416 0.9094 -106.9963 579.7057)" class="st17" cx="1277" cy="535.4" rx="1.6" ry="2.3"/>
	</g>
</g>
</svg>
