<?xml version="1.0" encoding="utf-8"?>
<!-- Generator: Adobe Illustrator 24.1.3, SVG Export Plug-In . SVG Version: 6.00 Build 0)  -->
<svg version="1.1" xmlns="http://www.w3.org/2000/svg" xmlns:xlink="http://www.w3.org/1999/xlink" x="0px" y="0px"
	 viewBox="0 0 1640 624" style="enable-background:new 0 0 1640 624;" xml:space="preserve">
<style type="text/css">
	.st0{fill:#A66D4E;}
	.st1{fill:#854C2E;}
	.st2{fill:#FDE7C5;}
	.st3{fill:#222221;stroke:#222221;stroke-width:1.7599;stroke-miterlimit:10;}
	.st4{fill:#222221;}
	.st5{fill:#843B1E;}
	.st6{fill:#E28142;}
	.st7{fill:#89472B;}
	.st8{opacity:0.49;fill:#C68D73;}
	.st9{fill:#E0A395;}
	.st10{fill:#B0D7ED;}
	.st11{opacity:0.5;}
	.st12{fill:#94E0B3;}
	.st13{fill:#AFE8CA;}
	.st14{fill:#C4E8F7;}
	.st15{fill:#C1E0D5;}
	.st16{fill:#E66E28;}
	.st17{fill:#FFFFFF;}
	.st18{fill:#CBD5E1;}
	.st19{fill:#BE541D;}
	.st20{fill:#E4B989;}
	.st21{fill:#89535C;}
	.st22{fill:#222221;stroke:#222221;stroke-width:1.1592;stroke-miterlimit:10;}
	.st23{fill:#55323C;}
	.st24{fill:#BC9370;}
</style>
<g id="山">
</g>
<g id="雲">
</g>
<g id="陰影">
</g>
<g id="松鼠">
	<g>
		<g>
			<path class="st0" d="M867.4,314.4c-0.6-2.2,0-6,0.9-8c0.9-2,2.4-3.7,4.1-5.2c4.6,2.6,7.4,9,6.7,14.4c0,0-2.6,1.9-7,1.8
				C867.7,317.4,867.4,314.4,867.4,314.4z"/>
			<path class="st1" d="M870.6,314.3c-0.3-1.7,0.2-4.7,1.2-6.2c0.1-0.2,0.3-0.4,0.5-0.6c0.4-0.3,1-0.2,1.5,0
				c0.5,0.3,0.8,0.7,1.1,1.2c0.8,1.5,1.4,4,1.1,5.7L870.6,314.3z"/>
			<path class="st0" d="M844.3,341.7c-5.1-1-9.4-5.5-10.3-10.9c1.8-1.2,3.8-2.2,5.9-2.5c2.1-0.3,4.4,0,6.1,1.2c0,0,4.3,2.8,2.2,7.7
				C846.3,342.2,844.3,341.7,844.3,341.7z"/>
			<path class="st1" d="M844.8,338.4c-1.6-0.3-3.6-1.5-4.6-2.8c-0.3-0.4-0.7-0.9-0.8-1.4c-0.1-0.5,0-1.2,0.4-1.5
				c0.2-0.2,0.4-0.3,0.7-0.3c1.6-0.5,3.8-0.3,5.2,0.6c0,0,1.7,1.7,0.8,3.3C845.7,337.7,844.8,338.4,844.8,338.4z"/>
			<path class="st0" d="M946.2,420.3c7.4-3.7,14.6-9.4,20.4-15.5c-1.2-1.8-3.1-3-5.3-3.3c-2.2-0.3-4.4,0.3-6.3,1.7
				c0.5-5.8-1-11.5-4.2-15.9c-3.2-4.4-9.6-10.4-17.6-9.2l-7.4,7.4L946.2,420.3z"/>
			<path class="st1" d="M901,450.8c-7.2,8.5-16.1,16.3-26.7,18c-8,1.3-16.2-1-23.2-5.2c-7-4.2-13-9.8-17.3-16.9
				c-5.6-9.2-7.8-20.6-6.1-31.4c0.6-3.8,1.6-7.4,1.9-11.2c0.3-3.8-0.3-7.9-2.6-10.8c-2.1-2.7-5.5-4.1-8.7-3.7
				c-3.3,0.4-6.3,2.5-7.9,5.5c-2.7-6.3-9.9-26.4,4.8-37.3c5.5-4.1,23.1-16.8,37.7,0.4c1.3,1.5,2.4,3.3,3.3,5.1
				c1.2,2.3,2,4.8,2.5,7.4c2.4,11.2,12.3,51.8,31.4,66.3l13.5,7.7L901,450.8z"/>
			<path class="st2" d="M941.4,428.5c5.3-5.1,7.6-13,7.2-20.6c-0.4-7.5-3.4-14.7-7.7-20.8c-4.3-6.1-9.7-11.1-15.4-15.7
				c-7.1-5.7-14.7-10.9-22.6-15.3l-29.7,22.3c0,0-3,31.3,24.2,57.6C897.4,436,915.2,453.5,941.4,428.5z"/>
			<path class="st0" d="M868.9,376.1c-9.5,21.4,6.6,55.6,6.6,55.6c2.9,5.3,5.8,10.6,9.7,15.1c3.9,4.5,8.9,8.2,14.6,9.3
				c1.6,0.3,3.2,0.4,4.7,0.5c5.5,0.1,13.2,0.7,38.8-23c-0.6-2.3-2.3-4.2-4.5-4.8c-2.1-0.6-4.6,0-6.2,1.6
				c-3.5-7.4-8.6-14.3-15.7-17.7c-7.1-3.5-16.3-2.8-21.8,3c0,0-20.9-24.3-17.8-45.6L868.9,376.1z"/>
			<path class="st0" d="M874.7,379.2c-2.8,1-5.7,1.5-8.6,1.4c-1.6-0.1-3.2-0.3-4.7-0.9c-6.4-2.4-9.6-9.6-11.8-16.3
				c-1.2-3.6-2.2-7.3-3.2-11.1c-1.5-6.1-2.7-12.6-1.1-18.9c0.9-3.5,2.7-6.8,5.2-9.4c0,0,6.3-6.6,10.9-8.4c3.3-1.2,6.7-2.5,10.1-2.3
				c6.2,0.3,11.7,3.5,16.7,6.9c3.1,2.1,6.1,4.3,9,6.6c5.4,4.2,10.9,9.7,11.1,16.8c0.1,3.3-1,6.6-2.3,9.8c0,0-5.1,10.8-14.9,17.6
				C885.2,375.2,878.7,377.8,874.7,379.2z"/>
			<path class="st1" d="M873.1,343.9c-5.7-8.5-16.9-14.1-26.7-13.1c0,0,2.1-5.3,6.9-9.4c0,0,5-5,10-6.5c0,0,4.3-1.7,6.6-1.7
				l-0.3,0.6c-2,4.6-2.1,10-1,14.9c1.1,4.9,3.4,9.7,6,14L873.1,343.9z"/>
			<path class="st3" d="M871.5,345.9c-0.4-0.2-0.7-0.6-0.7-1.1c-0.1-0.7,0.5-1.3,1-1.8c0.8-0.7,1.7-1.4,2.6-2
				c0.6-0.4,1.3-0.7,1.9-0.4c0.6,0.4,0.6,1.2,0.6,1.9C876.6,345.7,875.1,347.3,871.5,345.9z"/>
			<path class="st4" d="M864.2,350.9c0.8,1.2,0.8,2.6,0,3.2s-2.1,0.2-2.9-1s-0.8-2.6,0-3.2S863.4,349.8,864.2,350.9z"/>
			<path class="st4" d="M885,335c0.8,1.2,0.8,2.6,0,3.2c-0.8,0.6-2.1,0.2-2.9-1c-0.8-1.2-0.8-2.6,0-3.2
				C882.9,333.4,884.2,333.8,885,335z"/>
			<g>
				<g>
					<path class="st4" d="M876,345.5c0.6,0.4,1,0.9,1.4,1.4c0.4,0.5,0.7,1.1,0.8,1.8c0.1,0.3-0.1,0.6-0.5,0.7c-0.2,0-0.3,0-0.4-0.1
						c-0.6-0.4-1-0.9-1.4-1.4c-0.3-0.5-0.6-1.1-0.8-1.8c-0.1-0.3,0.1-0.6,0.4-0.6C875.7,345.4,875.9,345.5,876,345.5z"/>
				</g>
				<g>
					<path class="st4" d="M880.1,346.6c0.1,0.7-0.2,1.3-0.5,1.8c-0.3,0.5-0.7,1-1.2,1.3c-0.9,0.8-2.1,1.3-3.3,1.2
						c-0.3,0-0.6-0.3-0.5-0.6c0-0.2,0.1-0.4,0.3-0.5l0,0c0.9-0.5,1.7-0.9,2.4-1.5c0.4-0.3,0.7-0.6,1-0.9c0.3-0.3,0.6-0.6,0.8-1
						l0-0.1c0.1-0.3,0.4-0.4,0.7-0.2C880,346.3,880.1,346.5,880.1,346.6z"/>
				</g>
			</g>
			<g>
				<path class="st5" d="M918.2,403.7c-4.5,3.6-9.8,1.2-14-1.3c-4.2-2.5-7.4-6.8-9.2-11.5c7.6-3.4,14.5-8.5,20.2-14.9
					C915.2,375.9,931.4,393.3,918.2,403.7z"/>
				<path class="st6" d="M910,370.2c1.9-0.1,3.8,0.2,5.3,1.2c1.6,1.1,2.6,3.1,2.2,5c-0.3,1.3-1.3,2.3-2.2,3.2
					c-5,4.8-10.6,8.8-16.7,11.8c-2,1-4.5,1.8-6.1,0.2c-1.1-1.1-1.2-3-1-4.6C892.5,377.1,900.8,370.5,910,370.2z"/>
				<path class="st6" d="M898.6,375.7c-0.3-0.3-3.2-3.4-3.4-4.1c-0.2-0.7,0.1-1.7,0.9-1.8c0.6-0.1,1.1,0.5,1.5,1
					c0.6,0.8,2.2,2.8,2.6,3.8L898.6,375.7z"/>
				<g>
					<g>
						<path class="st7" d="M903.2,373.3c0.2-0.3,0.5-0.4,0.8-0.5c0.3-0.1,0.6-0.2,0.9-0.1c0.2,0,0.3,0.2,0.3,0.4
							c0,0.1,0,0.1-0.1,0.2c-0.2,0.3-0.5,0.4-0.8,0.5c-0.3,0.1-0.6,0.2-0.9,0.1c-0.2,0-0.3-0.2-0.3-0.4
							C903.2,373.4,903.2,373.3,903.2,373.3z"/>
					</g>
					<g>
						<path class="st7" d="M907.9,372.2c0.2-0.2,0.5-0.2,0.8-0.2c0.3,0,0.5,0.1,0.7,0.4c0.1,0.2,0.1,0.4-0.1,0.6c0,0-0.1,0-0.1,0
							l0,0c-0.3,0.1-0.4,0.1-0.6,0.1c-0.2,0-0.4-0.1-0.6-0.2l0,0C907.8,372.6,907.7,372.4,907.9,372.2
							C907.8,372.2,907.9,372.2,907.9,372.2z"/>
					</g>
					<g>
						<path class="st7" d="M905,374.8c0.2-0.2,0.4-0.3,0.6-0.3c0.2,0,0.4,0,0.7,0.1c0.2,0.1,0.3,0.4,0.1,0.6c0,0,0,0,0,0.1
							c-0.2,0.2-0.4,0.2-0.6,0.3c-0.2,0-0.4,0-0.7-0.1C904.9,375.3,904.8,375.1,905,374.8C905,374.9,905,374.8,905,374.8z"/>
					</g>
					<g>
						<path class="st7" d="M908.7,375.4c0.3-0.2,0.7-0.2,1-0.2c0.4,0,0.7,0,1,0.2c0.2,0.1,0.3,0.3,0.2,0.5c0,0.1-0.1,0.1-0.2,0.2
							l0,0c-0.3,0.2-0.7,0.2-1,0.2c-0.3,0-0.7,0-1-0.2l0,0c-0.2-0.1-0.2-0.3-0.2-0.4C908.6,375.4,908.6,375.4,908.7,375.4z"/>
					</g>
					<g>
						<path class="st7" d="M911.6,372.6c0.4-0.2,0.8-0.1,1.1,0c0.3,0.2,0.7,0.4,0.8,0.8c0.1,0.2-0.1,0.4-0.3,0.5c-0.1,0-0.1,0-0.2,0
							l-0.1,0c-0.3-0.1-0.5-0.2-0.7-0.3c-0.2-0.1-0.4-0.2-0.7-0.4l0,0c-0.2-0.1-0.2-0.3-0.1-0.5
							C911.5,372.6,911.6,372.6,911.6,372.6z"/>
					</g>
					<g>
						<path class="st7" d="M913.5,376.4c0.3-0.1,0.5,0,0.7,0.1c0.2,0.1,0.4,0.3,0.4,0.6c0,0.2-0.2,0.4-0.4,0.4c0,0,0,0,0,0l-0.1,0
							c-0.2,0-0.4-0.1-0.5-0.2c-0.1-0.1-0.2-0.2-0.3-0.4l0-0.1C913.2,376.8,913.3,376.5,913.5,376.4
							C913.5,376.4,913.5,376.4,913.5,376.4z"/>
					</g>
					<g>
						<path class="st7" d="M902,376.2c0.4-0.1,0.8,0.1,1.2,0.3c0.3,0.2,0.7,0.5,0.8,0.9c0.1,0.2,0,0.4-0.2,0.5c-0.1,0-0.2,0-0.2,0
							l0,0c-0.4-0.1-0.6-0.3-0.9-0.4c-0.3-0.2-0.6-0.3-0.8-0.6l0,0c-0.1-0.1-0.1-0.3,0-0.5C901.8,376.3,901.9,376.2,902,376.2z"/>
					</g>
					<g>
						<path class="st7" d="M902.5,379.1c0.3-0.1,0.6,0,0.9,0.2c0.3,0.2,0.5,0.4,0.6,0.7c0.1,0.2-0.1,0.4-0.3,0.5c-0.1,0-0.1,0-0.1,0
							l0,0c-0.3,0-0.5-0.2-0.7-0.3c-0.2-0.1-0.4-0.3-0.6-0.5l0,0c-0.1-0.2-0.1-0.4,0.1-0.5C902.4,379.1,902.4,379.1,902.5,379.1z"/>
					</g>
					<g>
						<path class="st7" d="M906,377.7c0.3-0.1,0.7,0,1,0.1c0.3,0.2,0.6,0.4,0.7,0.7c0.1,0.2-0.1,0.4-0.3,0.5c-0.1,0-0.1,0-0.2,0
							l-0.1,0c-0.3,0-0.5-0.2-0.7-0.3c-0.2-0.1-0.4-0.2-0.6-0.4l0,0c-0.1-0.1-0.1-0.4,0-0.5C905.9,377.7,905.9,377.7,906,377.7z"/>
					</g>
					<g>
						<path class="st7" d="M906.4,381.1c0.3,0,0.4,0.1,0.6,0.2c0.2,0.1,0.3,0.3,0.4,0.5c0,0.2-0.1,0.5-0.3,0.5c0,0,0,0-0.1,0
							c-0.3,0-0.4-0.1-0.6-0.2c-0.1-0.1-0.3-0.3-0.3-0.6C906,381.3,906.1,381.1,906.4,381.1C906.4,381.1,906.4,381.1,906.4,381.1z"
							/>
					</g>
					<g>
						<path class="st7" d="M909.4,379c0.3-0.1,0.5,0.1,0.7,0.2c0.2,0.2,0.3,0.4,0.3,0.6c0,0.2-0.2,0.4-0.4,0.4c0,0,0,0,0,0l-0.1,0
							c-0.2,0-0.3-0.1-0.5-0.2c-0.1-0.1-0.2-0.2-0.3-0.5l0-0.1C909.1,379.2,909.2,379,909.4,379C909.4,379,909.4,379,909.4,379z"/>
					</g>
					<g>
						<path class="st7" d="M898.4,377c-0.1,0.3-0.2,0.6-0.4,0.9c-0.2,0.2-0.3,0.5-0.6,0.7l0,0c-0.2,0.1-0.4,0.1-0.5-0.1
							c0-0.1-0.1-0.1-0.1-0.2c0-0.4,0.1-0.7,0.3-1c0.2-0.3,0.4-0.6,0.8-0.7c0.2-0.1,0.4,0,0.4,0.2
							C898.5,376.9,898.5,376.9,898.4,377L898.4,377z"/>
					</g>
					<g>
						<path class="st7" d="M899.8,378.5c0.1,0.2,0.1,0.4,0.1,0.6c0,0.2-0.1,0.4-0.3,0.6c-0.2,0.2-0.5,0.1-0.6-0.1c0,0,0,0,0,0
							c-0.1-0.2-0.1-0.4-0.1-0.6c0.1-0.2,0.1-0.4,0.3-0.6C899.3,378.3,899.6,378.3,899.8,378.5C899.8,378.5,899.8,378.5,899.8,378.5
							z"/>
					</g>
					<g>
						<path class="st7" d="M897.1,381c0.2,0.2,0.2,0.4,0.2,0.6c0,0.2-0.1,0.4-0.4,0.5c-0.2,0.1-0.4,0-0.6-0.2l-0.1-0.1
							c-0.1-0.2-0.1-0.3-0.1-0.4c0-0.1,0.1-0.2,0.2-0.4l0.1-0.1C896.7,380.8,897,380.8,897.1,381z"/>
					</g>
					<g>
						<path class="st7" d="M895,382c0.1,0.3,0,0.6-0.1,0.9c-0.1,0.3-0.3,0.6-0.6,0.7c-0.2,0.1-0.4,0-0.5-0.2c0,0,0-0.1,0-0.2l0,0
							c0-0.3,0.1-0.5,0.2-0.8c0.1-0.2,0.2-0.4,0.4-0.7l0,0c0.1-0.1,0.4-0.1,0.5,0C894.9,381.9,895,382,895,382z"/>
					</g>
					<g>
						<path class="st7" d="M893.9,386.1c0.2,0.2,0.2,0.4,0.3,0.7c0,0.2,0,0.5-0.2,0.7c-0.1,0.2-0.4,0.2-0.6,0.1c0,0-0.1,0-0.1-0.1
							c-0.2-0.2-0.2-0.5-0.2-0.7c0-0.2,0-0.5,0.2-0.7C893.4,386,893.6,385.9,893.9,386.1C893.8,386.1,893.9,386.1,893.9,386.1z"/>
					</g>
					<g>
						<path class="st7" d="M896.6,385c0.3,0.1,0.4,0.4,0.4,0.6c0,0.2,0,0.5-0.2,0.7c-0.2,0.1-0.4,0.1-0.6,0c0,0,0,0,0,0l-0.1-0.1
							c-0.1-0.2-0.1-0.3-0.2-0.4c0-0.1,0-0.3,0.1-0.5l0-0.1C896.2,385,896.4,384.9,896.6,385C896.6,385,896.6,385,896.6,385z"/>
					</g>
					<g>
						<path class="st7" d="M899.6,382.7c0.2,0.1,0.3,0.3,0.4,0.5c0,0.2,0.1,0.3,0,0.6l0,0.1c-0.1,0.2-0.3,0.3-0.5,0.2c0,0,0,0,0,0
							c-0.2-0.1-0.3-0.3-0.4-0.5c0-0.2-0.1-0.4,0-0.7C899.1,382.6,899.3,382.6,899.6,382.7C899.5,382.6,899.5,382.6,899.6,382.7
							L899.6,382.7z"/>
					</g>
					<g>
						<path class="st7" d="M901.6,381.8c0.3,0.1,0.4,0.3,0.6,0.4c0.1,0.2,0.2,0.4,0.1,0.7c-0.1,0.2-0.3,0.4-0.5,0.3c0,0,0,0-0.1,0
							l0,0c-0.2-0.1-0.3-0.3-0.4-0.4c-0.1-0.2-0.2-0.3-0.1-0.6l0,0C901.1,381.9,901.3,381.7,901.6,381.8
							C901.5,381.7,901.6,381.7,901.6,381.8z"/>
					</g>
					<g>
						<path class="st7" d="M903.8,384.3c0.3,0,0.5,0.3,0.7,0.5c0.1,0.3,0.2,0.5,0,0.8c-0.1,0.2-0.3,0.3-0.5,0.1c0,0,0,0,0,0
							l-0.1-0.1c-0.2-0.1-0.2-0.3-0.3-0.4c0-0.1-0.1-0.3-0.1-0.5l0-0.1C903.4,384.5,903.6,384.3,903.8,384.3
							C903.8,384.3,903.8,384.3,903.8,384.3z"/>
					</g>
					<g>
						<path class="st7" d="M900.4,386.4c0.3,0.1,0.4,0.3,0.6,0.5c0.1,0.2,0.2,0.4,0.2,0.7c0,0.2-0.2,0.4-0.4,0.3c0,0-0.1,0-0.1,0
							l-0.1,0c-0.3-0.1-0.4-0.3-0.5-0.5c-0.1-0.2-0.2-0.4-0.2-0.7l0-0.1c0-0.2,0.2-0.3,0.4-0.3C900.3,386.3,900.4,386.4,900.4,386.4
							z"/>
					</g>
					<g>
						<path class="st7" d="M898.3,388.2c0.2,0,0.3,0.1,0.4,0.2c0,0.1,0.1,0.2,0,0.4c-0.1,0.2-0.3,0.3-0.6,0.3
							c-0.2,0-0.3-0.1-0.4-0.2c0-0.1-0.1-0.2,0-0.4C897.9,388.3,898.1,388.2,898.3,388.2z"/>
					</g>
					<g>
						<path class="st7" d="M895.1,389.5c0.2,0,0.4,0.1,0.5,0.2c0.1,0.2,0.2,0.3,0.1,0.6c-0.1,0.2-0.3,0.3-0.5,0.3l-0.1,0
							c-0.2,0-0.3-0.1-0.4-0.2c-0.1-0.1-0.1-0.2-0.1-0.4l0-0.1C894.7,389.7,894.8,389.5,895.1,389.5z"/>
					</g>
					<g>
						<path class="st7" d="M912.1,378.4c0.2,0,0.4,0.1,0.5,0.2c0.1,0.1,0.2,0.3,0.2,0.5c0,0.3-0.2,0.5-0.5,0.5
							c-0.2,0-0.4-0.1-0.5-0.2c-0.1-0.1-0.2-0.3-0.2-0.5C911.7,378.6,911.9,378.4,912.1,378.4z"/>
					</g>
					<g>
						<path class="st7" d="M915.2,373.3c0.4,0.1,0.6,0.4,0.8,0.7c0.2,0.3,0.3,0.7,0.1,1.1c-0.1,0.2-0.3,0.3-0.5,0.2
							c-0.1,0-0.1-0.1-0.2-0.1l0,0c-0.2-0.2-0.3-0.5-0.4-0.7c-0.1-0.2-0.2-0.5-0.3-0.8l0,0c0-0.2,0.1-0.4,0.3-0.4
							C915.1,373.3,915.2,373.3,915.2,373.3z"/>
					</g>
					<g>
						<path class="st7" d="M906,383.5c0.2,0,0.4,0.1,0.5,0.2c0.1,0.1,0.2,0.3,0.1,0.5c-0.1,0.2-0.3,0.3-0.5,0.3l-0.1,0
							c-0.2,0-0.3-0.1-0.3-0.2c0-0.1-0.1-0.2-0.1-0.4l0-0.1C905.6,383.7,905.8,383.5,906,383.5z"/>
					</g>
				</g>
				<g>
					<g>
						<path class="st6" d="M899,393.7c0.3,0.1,0.5,0.2,0.7,0.4c0.1,0.2,0.3,0.4,0.3,0.7l0,0c0,0.2-0.1,0.4-0.3,0.4c0,0-0.1,0-0.1,0
							c-0.3-0.1-0.5-0.3-0.7-0.4c-0.2-0.2-0.3-0.4-0.3-0.7c0-0.2,0.1-0.4,0.3-0.4C898.9,393.7,899,393.7,899,393.7L899,393.7z"/>
					</g>
					<g>
						<path class="st6" d="M902.2,395c0.3,0.1,0.5,0.3,0.7,0.5c0.2,0.2,0.4,0.3,0.6,0.6l0,0c0.1,0.2,0.1,0.4-0.1,0.5
							c-0.1,0-0.1,0.1-0.2,0.1c-0.4,0-0.7-0.2-1-0.4c-0.3-0.3-0.5-0.5-0.5-0.9c0-0.2,0.1-0.4,0.3-0.4C902,395,902.1,395,902.2,395
							L902.2,395z"/>
					</g>
					<g>
						<path class="st6" d="M903.1,398.2c0.3,0.1,0.5,0.3,0.7,0.4c0.1,0.2,0.3,0.4,0.3,0.7c0,0.2-0.1,0.4-0.4,0.4c0,0-0.1,0-0.1,0
							c-0.3-0.1-0.5-0.3-0.6-0.4c-0.1-0.2-0.3-0.4-0.3-0.7c0-0.2,0.1-0.4,0.3-0.4C903,398.2,903,398.2,903.1,398.2z"/>
					</g>
					<g>
						<path class="st6" d="M906.2,398.1c0.2,0,0.4,0.1,0.5,0.2c0.1,0.1,0.2,0.2,0.3,0.4l0,0.1c0,0.2-0.1,0.5-0.3,0.5c0,0,0,0,0,0
							c-0.3,0-0.5-0.1-0.7-0.2c-0.1-0.2-0.3-0.4-0.3-0.6C905.7,398.2,905.9,398.1,906.2,398.1C906.1,398.1,906.1,398.1,906.2,398.1
							L906.2,398.1z"/>
					</g>
					<g>
						<path class="st6" d="M907.5,401c0.2,0,0.4,0.1,0.5,0.2c0.1,0.1,0.2,0.2,0.3,0.4l0,0.1c0.1,0.2,0,0.4-0.2,0.5c0,0,0,0,0,0
							c-0.3,0.1-0.5,0-0.7-0.2c-0.2-0.2-0.4-0.4-0.4-0.7c0-0.2,0.2-0.4,0.4-0.4C907.4,401,907.5,401,907.5,401L907.5,401z"/>
					</g>
					<g>
						<path class="st6" d="M910.1,400.6c0.3,0,0.5,0.1,0.7,0.2c0.2,0.1,0.3,0.3,0.4,0.6c0.1,0.2-0.1,0.5-0.3,0.5c0,0-0.1,0-0.1,0
							c-0.3,0-0.5-0.1-0.7-0.2c-0.2-0.2-0.3-0.3-0.4-0.6C909.7,400.9,909.9,400.7,910.1,400.6C910.1,400.6,910.1,400.6,910.1,400.6z
							"/>
					</g>
				</g>
			</g>
			<path class="st0" d="M904,349.1c4.6-2.6,11.8,1.6,16.3,5c4.6,3.4,7.6,9.3,8.2,15.2c0.6,5.9-1.1,11.8-4.4,16.2
				c-0.8,1.1-1.8,2.2-3.1,2.7c-1.3,0.5-3,0.1-3.8-1.2c-0.6-0.9-0.7-2-0.7-3.1c-0.1-3.5,0.8-6.9,1.3-10.3c0.1-0.9,0.2-1.8,0.1-2.6
				c-1.5-9.7-15.4-15.3-15.4-15.3L904,349.1z"/>
			<path class="st0" d="M877.8,382.1c1.8,7.7,4.1,11,7.5,12.1c3.4,1.1,7.2,0.8,10.5-0.5c1.7-0.6,3.4-1.5,5.2-1.7
				c1.8-0.2,3.9,0.5,4.7,2.2c1,2.1-0.4,4.7-2,6.3c-3.9,4.1-9.3,6.4-14.7,6.4c-5.5,0-10.9-2.4-14.7-6.5"/>
			<g>
				<g>
					<path class="st1" d="M904.9,413.9c0.4-0.6,1-0.9,1.7-1c0.7-0.1,1.4,0,1.9,0.4c0.3,0.2,0.3,0.6,0.1,0.9
						c-0.1,0.1-0.2,0.2-0.3,0.2l-0.1,0c-0.5,0.2-0.9,0.2-1.4,0.3c-0.4,0-0.9,0.1-1.4,0.1l-0.1,0c-0.3,0-0.6-0.3-0.6-0.6
						C904.8,414.1,904.9,413.9,904.9,413.9z"/>
				</g>
				<g>
					<path class="st1" d="M909.5,416.2c0.4-0.3,0.8-0.4,1.3-0.3c0.4,0.1,0.8,0.3,1.1,0.7c0.2,0.3,0.1,0.8-0.3,1c0,0-0.1,0-0.1,0
						l-0.1,0c-0.4,0.1-0.7,0.1-0.9,0.1c-0.3-0.1-0.5-0.2-0.8-0.5l-0.1-0.1C909.2,417,909.2,416.6,909.5,416.2
						C909.4,416.3,909.4,416.3,909.5,416.2z"/>
				</g>
				<g>
					<path class="st1" d="M912.9,414.2c0.4-0.3,0.9-0.3,1.4-0.2c0.4,0.1,0.8,0.4,1.1,0.9c0.2,0.4,0,0.8-0.4,0.9c0,0-0.1,0-0.1,0
						l-0.1,0c-0.4,0.1-0.7,0-1-0.1c-0.3-0.1-0.6-0.2-0.9-0.6l-0.1-0.1c-0.3-0.3-0.3-0.7,0-0.9C912.8,414.3,912.8,414.2,912.9,414.2z
						"/>
				</g>
				<g>
					<path class="st1" d="M914.3,419c0.7-0.2,1.4,0,1.9,0.4c0.5,0.4,0.9,1,0.9,1.7c0,0.4-0.3,0.6-0.7,0.6c-0.1,0-0.2,0-0.3-0.1
						l-0.1-0.1c-0.5-0.2-0.7-0.5-1-0.7c-0.3-0.2-0.6-0.5-0.9-0.8l-0.1-0.1c-0.2-0.2-0.2-0.6,0-0.8
						C914.1,419.1,914.2,419.1,914.3,419z"/>
				</g>
				<g>
					<path class="st1" d="M919,418.6c0.6-0.1,1.2,0.2,1.7,0.5c0.5,0.4,0.8,0.9,0.9,1.5c0,0.4-0.2,0.7-0.6,0.7c-0.1,0-0.2,0-0.3,0
						l-0.1,0c-0.5-0.2-0.8-0.4-1.1-0.7c-0.3-0.3-0.6-0.5-0.9-1l0-0.1c-0.2-0.3-0.1-0.7,0.2-0.8C918.8,418.6,918.9,418.6,919,418.6z"
						/>
				</g>
				<g>
					<path class="st1" d="M920.9,423.8c0.4,0,0.7,0.2,1,0.4c0.2,0.2,0.4,0.5,0.4,1c0,0.4-0.3,0.8-0.8,0.8c0,0,0,0-0.1,0
						c-0.4,0-0.7-0.2-0.9-0.5c-0.2-0.3-0.4-0.5-0.4-1C920.1,424.2,920.4,423.8,920.9,423.8C920.8,423.8,920.8,423.8,920.9,423.8z"/>
				</g>
				<g>
					<path class="st1" d="M925.1,424.7c0.6,0.2,1.1,0.6,1.4,1.1c0.3,0.5,0.5,1.1,0.4,1.7c-0.1,0.4-0.4,0.6-0.8,0.5
						c-0.1,0-0.2-0.1-0.3-0.1l0,0c-0.4-0.4-0.7-0.7-0.9-1.1c-0.2-0.4-0.4-0.8-0.5-1.3l0-0.1c-0.1-0.3,0.1-0.7,0.5-0.7
						C924.9,424.6,925,424.6,925.1,424.7z"/>
				</g>
				<g>
					<path class="st1" d="M881.1,435.4c0.4,0.2,0.6,0.5,0.8,0.8c0.2,0.3,0.3,0.6,0.3,1.1l0,0.1c0,0.4-0.4,0.7-0.8,0.7
						c-0.1,0-0.1,0-0.2,0c-0.5-0.1-0.8-0.5-1-0.8c-0.2-0.4-0.3-0.8-0.2-1.3c0.1-0.4,0.5-0.6,0.8-0.5
						C881,435.3,881,435.3,881.1,435.4L881.1,435.4z"/>
				</g>
				<g>
					<path class="st1" d="M884.6,437.5c0.4,0.1,0.7,0.4,0.9,0.7c0.2,0.3,0.4,0.6,0.3,1.1c0,0.4-0.4,0.7-0.8,0.7c0,0-0.1,0-0.1,0
						c-0.4-0.1-0.7-0.4-0.9-0.7c-0.2-0.3-0.3-0.6-0.3-1.1c0-0.4,0.4-0.7,0.8-0.6C884.6,437.5,884.6,437.5,884.6,437.5z"/>
				</g>
				<g>
					<path class="st1" d="M885,441.8c0.5,0.2,0.8,0.5,1,0.8c0.3,0.3,0.5,0.6,0.6,1.1l0,0c0.1,0.4-0.2,0.7-0.5,0.8
						c-0.1,0-0.2,0-0.3,0c-0.5-0.1-0.9-0.4-1.2-0.8c-0.3-0.4-0.5-0.8-0.5-1.4c0-0.4,0.3-0.6,0.7-0.6
						C884.9,441.7,884.9,441.7,885,441.8L885,441.8z"/>
				</g>
				<g>
					<path class="st1" d="M888.8,441.5c0.5,0.1,0.9,0.4,1.2,0.6c0.3,0.3,0.6,0.6,0.8,1.1l0,0c0.1,0.3,0,0.7-0.4,0.9
						c-0.1,0-0.2,0.1-0.3,0.1c-0.6,0-1-0.3-1.4-0.6c-0.4-0.4-0.7-0.8-0.8-1.4c-0.1-0.3,0.2-0.7,0.5-0.7
						C888.6,441.5,888.6,441.5,888.8,441.5L888.8,441.5z"/>
				</g>
				<g>
					<path class="st1" d="M890.5,446.9c0.2,0.1,0.4,0.1,0.7,0.2c0.2,0.1,0.6,0.2,0.8,0.4c0.6,0.3,1.1,0.7,1.5,1.3
						c0.2,0.3,0.1,0.7-0.2,0.9c-0.1,0.1-0.3,0.1-0.4,0.1c-0.7-0.1-1.3-0.3-1.8-0.7c-0.3-0.2-0.5-0.3-0.8-0.6
						c-0.3-0.3-0.6-0.6-0.7-1.1c-0.1-0.3,0.1-0.6,0.4-0.6c0.1,0,0.2,0,0.3,0L890.5,446.9z"/>
				</g>
				<g>
					<path class="st1" d="M894.5,446c0.5,0,0.8,0.1,1.1,0.3c0.3,0.2,0.6,0.5,0.7,0.9c0.1,0.4-0.2,0.8-0.6,0.9c0,0-0.1,0-0.1,0
						l-0.1,0c-0.5,0-0.8-0.1-1-0.3c-0.3-0.2-0.5-0.5-0.6-0.9l0-0.1c-0.1-0.4,0.1-0.7,0.5-0.8C894.4,446,894.5,446,894.5,446z"/>
				</g>
				<g>
					<path class="st1" d="M897.4,451.3c0.5,0,0.8,0.1,1,0.2c0.3,0.1,0.5,0.3,0.8,0.6l0.1,0.1c0.2,0.3,0.2,0.7-0.1,1
						c0,0-0.1,0.1-0.2,0.1c-0.5,0.2-1,0.1-1.4-0.1c-0.4-0.2-0.8-0.5-0.9-1.1c-0.1-0.3,0.1-0.7,0.4-0.8
						C897.3,451.3,897.3,451.3,897.4,451.3L897.4,451.3z"/>
				</g>
				<g>
					<path class="st1" d="M900.4,449.6c0.4-0.1,0.7,0,1,0c0.3,0.1,0.6,0.3,0.8,0.6l0,0.1c0.2,0.3,0.2,0.8-0.2,1c0,0-0.1,0-0.1,0.1
						c-0.4,0.2-0.9,0.1-1.2,0c-0.4-0.2-0.7-0.4-0.9-0.9c-0.1-0.3,0-0.7,0.4-0.9C900.2,449.6,900.3,449.6,900.4,449.6L900.4,449.6z"
						/>
				</g>
				<g>
					<path class="st1" d="M904.1,453.9c0.5,0,0.8,0,1.1,0c0.3,0,0.6,0.1,1.1,0.3l0.1,0.1c0.3,0.1,0.5,0.5,0.4,0.9
						c0,0.1-0.1,0.2-0.1,0.2c-0.5,0.5-1.1,0.6-1.7,0.5c-0.6-0.1-1.2-0.4-1.5-1c-0.2-0.3,0-0.7,0.3-0.8c0.1,0,0.2-0.1,0.2-0.1
						L904.1,453.9z"/>
				</g>
				<g>
					<path class="st1" d="M906.4,450.6c0.5-0.1,0.9-0.1,1.2,0c0.4,0.1,0.7,0.2,1.1,0.5l0,0c0.3,0.2,0.3,0.7,0.1,1
						c-0.1,0.1-0.1,0.1-0.2,0.2c-0.5,0.3-1,0.3-1.5,0.2c-0.5-0.1-0.9-0.4-1.2-0.8c-0.2-0.3-0.1-0.7,0.2-0.9
						C906.2,450.7,906.3,450.7,906.4,450.6L906.4,450.6z"/>
				</g>
				<g>
					<path class="st1" d="M869.4,385.4c0.3,0.3,0.4,0.6,0.4,0.9c0,0.3,0,0.6-0.2,1l0,0c-0.2,0.4-0.7,0.5-1.1,0.2c0,0-0.1,0-0.1-0.1
						c-0.4-0.3-0.5-0.7-0.5-1c0-0.4,0.1-0.7,0.4-1.1C868.6,385.1,869,385.1,869.4,385.4C869.3,385.3,869.3,385.4,869.4,385.4
						L869.4,385.4z"/>
				</g>
				<g>
					<path class="st1" d="M871.5,388.5c0.4,0.3,0.5,0.6,0.6,1c0.1,0.3,0.1,0.7-0.1,1.1c-0.2,0.4-0.7,0.5-1,0.3c0,0-0.1,0-0.1-0.1
						c-0.4-0.3-0.5-0.6-0.6-1c-0.1-0.4-0.1-0.7,0.2-1.1C870.6,388.4,871,388.2,871.5,388.5C871.4,388.4,871.4,388.4,871.5,388.5z"/>
				</g>
				<g>
					<path class="st1" d="M869.5,391.9c0.3,0.3,0.4,0.6,0.4,0.8c0,0.3,0,0.5-0.2,0.9l0,0.1c-0.2,0.4-0.7,0.5-1.1,0.3c0,0,0,0,0,0
						c-0.4-0.3-0.5-0.6-0.6-1c0-0.4,0-0.8,0.4-1.1C868.7,391.6,869.1,391.6,869.5,391.9C869.4,391.9,869.4,391.9,869.5,391.9
						L869.5,391.9z"/>
				</g>
				<g>
					<path class="st1" d="M868.9,397.6c0.3,0.4,0.4,0.8,0.5,1.2c0.1,0.4,0.1,0.8,0,1.3l0,0c-0.1,0.4-0.5,0.6-0.9,0.5
						c-0.1,0-0.2-0.1-0.2-0.1c-0.4-0.4-0.6-0.8-0.7-1.3c-0.1-0.5,0-1,0.3-1.5c0.2-0.3,0.6-0.4,0.9-0.2
						C868.8,397.5,868.8,397.5,868.9,397.6L868.9,397.6z"/>
				</g>
				<g>
					<path class="st1" d="M872.5,395.8c0.3,0.5,0.3,1,0.3,1.5c0,0.5-0.1,1-0.4,1.4c-0.2,0.3-0.6,0.4-0.9,0.1
						c-0.1-0.1-0.1-0.1-0.2-0.2l0-0.1c-0.3-0.5-0.3-0.9-0.3-1.4c0-0.5,0.2-0.9,0.5-1.4l0,0c0.2-0.3,0.6-0.3,0.9-0.1
						C872.4,395.6,872.5,395.7,872.5,395.8z"/>
				</g>
				<g>
					<path class="st1" d="M870,403.1c0.3,0.3,0.4,0.6,0.5,1c0,0.3,0,0.7-0.3,1.1c-0.3,0.3-0.7,0.4-1.1,0.2c0,0-0.1,0-0.1-0.1
						c-0.3-0.3-0.4-0.6-0.4-1c0-0.3,0-0.7,0.3-1.1C869.2,402.9,869.6,402.8,870,403.1C870,403.1,870,403.1,870,403.1z"/>
				</g>
				<g>
					<path class="st1" d="M914.8,352.4c0.6,0.1,1.2,0.4,1.7,0.7c0.2,0.2,0.5,0.4,0.7,0.6c0.2,0.2,0.4,0.5,0.5,0.7
						c0.1,0.2,0,0.5-0.2,0.6c-0.1,0.1-0.2,0.1-0.3,0l0,0c-0.3-0.1-0.5-0.3-0.7-0.4c-0.2-0.1-0.4-0.3-0.7-0.5
						c-0.4-0.3-0.9-0.7-1.3-1.1l0,0c-0.1-0.2-0.1-0.4,0-0.5C914.6,352.4,914.7,352.4,914.8,352.4z"/>
				</g>
				<g>
					<path class="st1" d="M918,357.2c0.4,0,0.8,0.2,1.1,0.5c0.2,0.1,0.3,0.3,0.4,0.4c0.1,0.2,0.2,0.4,0.3,0.6
						c0.1,0.2-0.1,0.5-0.3,0.5c-0.1,0-0.2,0-0.2,0l0,0c-0.2-0.1-0.3-0.2-0.5-0.2c-0.1-0.1-0.3-0.2-0.4-0.3c-0.2-0.2-0.5-0.5-0.7-0.8
						l0,0c-0.1-0.2-0.1-0.4,0.1-0.6C917.9,357.2,918,357.2,918,357.2z"/>
				</g>
				<g>
					<path class="st1" d="M921.4,357.1c0.4,0.1,0.6,0.4,0.8,0.6c0.1,0.1,0.2,0.3,0.3,0.4c0.1,0.2,0.1,0.3,0.2,0.5
						c0,0.3-0.1,0.5-0.4,0.5c-0.1,0-0.1,0-0.2,0c-0.2-0.1-0.3-0.2-0.5-0.3c-0.1-0.1-0.2-0.2-0.4-0.4c-0.2-0.3-0.4-0.6-0.4-0.9
						c0-0.2,0.1-0.4,0.4-0.5C921.2,357.1,921.3,357.1,921.4,357.1z"/>
				</g>
				<g>
					<path class="st1" d="M923.5,362c0.4,0.1,0.8,0.4,1,0.7c0.1,0.2,0.2,0.4,0.3,0.6c0.1,0.2,0.1,0.4,0.1,0.6c0,0.2-0.3,0.4-0.5,0.4
						c-0.1,0-0.1,0-0.2-0.1l0,0c-0.2-0.1-0.3-0.2-0.4-0.4c-0.1-0.1-0.2-0.2-0.3-0.4c-0.2-0.3-0.3-0.5-0.4-0.9l0,0
						c-0.1-0.2,0-0.4,0.3-0.5C923.3,362,923.4,362,923.5,362z"/>
				</g>
			</g>
			<g>
				<g>
					<path class="st0" d="M877.3,461.3c-5.5,1.1-11.2,0.6-16.4-1.2c-5.3-1.8-10-4.9-14.1-8.8c-2-1.9-3.9-4-5.5-6.3
						c-1.6-2.3-3.1-4.7-4.2-7.3c-2.3-5.1-3.4-10.9-2.5-16.5c0-0.3,0.3-0.4,0.6-0.4c0.2,0,0.4,0.2,0.4,0.5c0.1,2.7,0.5,5.4,1,7.9
						c0.6,2.6,1.5,5.1,2.5,7.5c1,2.4,2.4,4.8,3.9,7c1.5,2.2,3.2,4.3,5,6.3c3.7,3.9,8.2,7.1,13.2,9c5,1.9,10.6,2.4,15.9,1.2
						c0.3-0.1,0.5,0.1,0.6,0.4C877.8,461,877.6,461.2,877.3,461.3C877.4,461.3,877.4,461.3,877.3,461.3z"/>
				</g>
				<g>
					<path class="st0" d="M858.4,452.6c-1.8-0.3-3.3-1.1-4.8-2.1c-1.4-1-2.8-2-4.1-3.1c-1.3-1.1-2.5-2.4-3.6-3.7
						c-1-1.4-1.9-2.9-2.3-4.7c-0.1-0.3,0.1-0.5,0.4-0.6c0.2,0,0.3,0,0.4,0.1l0,0c1.3,1.2,2.3,2.5,3.2,3.8c1,1.3,1.9,2.6,3,3.9
						c1,1.3,2.2,2.5,3.5,3.5c1.3,1,2.8,1.8,4.4,2c0.3,0,0.5,0.3,0.4,0.5C859,452.4,858.7,452.6,858.4,452.6
						C858.5,452.6,858.4,452.6,858.4,452.6z"/>
				</g>
				<g>
					<path class="st0" d="M823.5,358.1c2.7-2,6-2.9,9.3-3.1c3.3-0.2,6.7,0.4,9.8,1.8c3.1,1.3,5.9,3.5,7.9,6.2c2.1,2.7,3.4,6,3.6,9.3
						c0,0.3-0.2,0.5-0.5,0.5c-0.2,0-0.4-0.1-0.5-0.3l0,0c-1.2-3-2.6-5.7-4.4-8.2c-0.9-1.2-2-2.4-3.1-3.4c-1.1-1-2.4-1.9-3.8-2.7
						c-2.7-1.5-5.8-2.3-9-2.3c-3.1,0-6.4,0.9-8.8,2.8c-0.2,0.2-0.5,0.1-0.7-0.1S823.2,358.3,823.5,358.1
						C823.5,358.1,823.5,358.1,823.5,358.1z"/>
				</g>
				<g>
					<path class="st0" d="M814.7,367c-0.9,1.2-1.6,2.5-2.1,4c-0.5,1.4-0.7,2.9-0.7,4.4c0,1.5,0.1,2.9,0.2,4.4
						c0.2,1.4,0.4,2.8,0.4,4.4l0,0c0,0.3-0.2,0.5-0.5,0.5c-0.2,0-0.3-0.1-0.4-0.2c-1.1-1.3-1.6-2.9-1.8-4.5
						c-0.2-1.6-0.1-3.3,0.3-4.8c0.4-1.6,0.9-3.1,1.5-4.5c0.6-1.5,1.4-2.8,2.3-4.2c0.1-0.2,0.4-0.3,0.7-0.1
						C814.8,366.4,814.8,366.7,814.7,367C814.7,367,814.7,367,814.7,367z"/>
				</g>
				<g>
					<path class="st0" d="M832.6,360.9c1.4-0.5,2.9-0.7,4.3-0.5c1.5,0.1,2.9,0.4,4.3,1c1.4,0.6,2.7,1.4,3.7,2.4c1.1,1,2,2.2,2.4,3.6
						c0.1,0.3-0.1,0.6-0.3,0.6c-0.1,0-0.3,0-0.4,0c-1.3-0.7-2.2-1.7-3.2-2.6c-1-0.9-1.9-1.8-3-2.5c-1.1-0.7-2.3-1.3-3.6-1.5
						c-1.3-0.2-2.7-0.1-3.9,0.4c-0.2,0.1-0.5,0-0.6-0.2C832.2,361.3,832.3,361.1,832.6,360.9C832.6,360.9,832.6,360.9,832.6,360.9z"
						/>
				</g>
			</g>
			<path class="st8" d="M908,348.4c0,0-1,13.2-14.6,23.4c-15.3,11.3-27.2,8.8-27.2,8.8c2.9,0.1,5.8-0.4,8.6-1.4
				c4-1.4,10.5-4.1,16.7-8.4c9.8-6.8,14.9-17.6,14.9-17.6C906.9,351.7,907.6,350,908,348.4"/>
			<path class="st9" d="M891.3,338.1c0.6,0.9-0.1,2.6-1.7,3.8c-1.6,1.2-3.3,1.4-4,0.5c-0.6-0.9,0.1-2.6,1.7-3.8
				C888.9,337.4,890.7,337.2,891.3,338.1z"/>
			<path class="st9" d="M867.5,355.9c0.6,0.9-0.1,2.6-1.7,3.8c-1.6,1.2-3.3,1.4-4,0.5c-0.6-0.9,0.1-2.6,1.7-3.8
				C865.1,355.3,866.8,355,867.5,355.9z"/>
		</g>
		<path class="st10" d="M825.2,536.9"/>
		<g class="st11">
			<path class="st12" d="M1034.9,303.4c0,0,168.6-632.1,338.2-4.1c0.3,1,0.6,2.1,1,3.1l87.2,235.6H951.9L1034.9,303.4z"/>
			<path class="st13" d="M1268.2,49.1c-60.7-61.4-114.2-11.9-125.6,0.2c-6.6,10.2-13.5,20.6-20.2,31.1
				c-14.2,28.9-32.8,72.8-43.5,98.5c-1.8,4.8-3.7,9.4-5.8,14c-0.7,1.7-1.3,3.1-1.7,4.2c-0.7,1.7-1,3.4-1,5.3v41.8
				c0,6.5,3,12.7,8.2,16.6c7.9,5.9,20.3,10.6,30.7-4.7c1.3-1.9,2-4.1,2-6.4l1-35.5v-6c0-4.1,2.1-8,5.6-10.2c6.4-4,17.1-7.7,25.6,4.3
				l1.3,3c1.4,3.1,2.1,6.5,2.1,9.9v67.9c0,6,3.1,11.5,8.2,14.6c6,3.5,14.5,5.7,23.5-1.6c3.3-2.7,5.2-6.8,5.2-11v-93.5
				c0-3.3,1.1-6.5,3.2-9.1c5.2-6.5,16.3-15.7,29.3,0c2.2,2.7,3.4,6.2,3.4,9.7v49.1c0,5.4,2.9,10.4,7.6,13.1
				c6.3,3.5,15.4,6.2,23.7-0.8c3.6-3,5.6-7.5,5.6-12.2v-26.8c0-5.1,2.8-9.8,7.3-12.2c6.5-3.5,16.4-6.7,24.6-0.7
				c4.4,3.1,6.7,8.3,6.7,13.7c0,8.6,0,24.7,0,34.4c0,5.9,3,11.5,8.1,14.5c5.8,3.5,13.7,6.1,20.5,0.6c4.1-3.2,6.2-8.4,6.2-13.6v-64.3
				C1322.1,118.9,1268.2,49.1,1268.2,49.1z"/>
		</g>
		<g>
			<path class="st12" d="M899.1,363.5c0,0,124.1-468.5,249-3c0.2,0.8,0.5,1.5,0.8,2.3l64.2,174.6H838L899.1,363.5z"/>
			<path class="st13" d="M1070.8,175.1c-44.7-45.5-84-8.8-92.4,0.2c-4.9,7.6-10,15.2-14.8,23c-10.4,21.4-24.2,53.9-32.1,73
				c-1.3,3.5-2.8,7-4.3,10.4c-0.5,1.3-0.9,2.3-1.3,3.1c-0.5,1.2-0.8,2.6-0.8,3.9v31c0,4.8,2.2,9.4,6,12.3c5.8,4.4,14.9,7.8,22.6-3.5
				c0.9-1.4,1.4-3.1,1.5-4.8l0.7-26.3v-4.4c0-3.1,1.5-5.9,4.1-7.5c4.7-3,12.6-5.7,18.8,3.2l1,2.2c1,2.3,1.6,4.8,1.6,7.3v50.3
				c0,4.4,2.3,8.5,6.1,10.8c4.4,2.6,10.7,4.2,17.3-1.2c2.4-2,3.9-5,3.9-8.2v-69.3c0-2.4,0.8-4.8,2.4-6.7c3.9-4.8,12-11.7,21.6,0
				c1.7,2,2.5,4.6,2.5,7.2v36.4c0,4,2.1,7.7,5.6,9.7c4.6,2.6,11.3,4.6,17.5-0.6c2.6-2.2,4.1-5.6,4.1-9v-19.8c0-3.8,2.1-7.2,5.4-9
				c4.8-2.6,12-4.9,18.1-0.6c3.2,2.3,5,6.2,5,10.2c0,6.4,0,18.3,0,25.5c0,4.4,2.2,8.5,6,10.8c4.2,2.6,10.1,4.5,15.1,0.4
				c3-2.4,4.6-6.2,4.6-10.1v-47.6C1110.5,226.8,1070.8,175.1,1070.8,175.1z"/>
		</g>
		<g>
			<path class="st12" d="M1293.6,392.7c0,0,111.5-389.9,223.7-2.5c0.2,0.6,0.4,1.3,0.7,1.9l57.7,145.3h-336.9L1293.6,392.7z"/>
			<path class="st13" d="M1447.9,235.9c-40.2-37.8-75.5-7.3-83.1,0.1c-4.4,6.3-9,12.7-13.3,19.2c-9.4,17.8-21.7,44.9-28.8,60.7
				c-1.2,2.9-2.5,5.8-3.8,8.6c-0.5,1.1-0.9,1.9-1.1,2.6c-0.5,1-0.7,2.1-0.7,3.2v25.8c0,4,2,7.9,5.4,10.2c5.2,3.6,13.4,6.5,20.3-2.9
				c0.9-1.2,1.3-2.5,1.3-4l0.7-21.9V334c0-2.5,1.4-4.9,3.7-6.3c4.2-2.5,11.3-4.7,16.9,2.7l0.9,1.9c0.9,1.9,1.4,4,1.4,6.1v41.9
				c0,3.7,2.1,7.1,5.4,9c3.9,2.2,9.6,3.5,15.6-1c2.2-1.7,3.5-4.2,3.5-6.8v-57.7c0-2,0.7-4,2.1-5.6c3.5-4,10.8-9.7,19.4,0
				c1.5,1.7,2.3,3.8,2.3,6v30.3c0,3.3,1.9,6.4,5.1,8.1c4.1,2.2,10.2,3.8,15.7-0.5c2.4-1.9,3.7-4.6,3.7-7.5V338c0-3.1,1.8-6,4.8-7.5
				c4.3-2.2,10.8-4.1,16.3-0.5c2.9,1.9,4.4,5.1,4.4,8.5c0,5.3,0,15.2,0,21.2c0,3.7,2,7.1,5.4,9c3.8,2.1,9.1,3.7,13.6,0.4
				c2.7-2,4.1-5.2,4.1-8.4V321C1483.5,278.9,1447.9,235.9,1447.9,235.9z"/>
		</g>
		<path class="st10" d="M911.4,41.3c0,0-9.7,5.1,0,8.7h66c0,0,10.2-19.5-19.4-15.9C958,34.1,929.4,0.9,911.4,41.3z"/>
		<path class="st14" d="M1053.7,91.3c0,0-15.9,8.4,0,14.2h107.8c0,0,16.6-31.8-31.7-25.9C1129.8,79.5,1083,25.2,1053.7,91.3z"/>
		<path class="st10" d="M1412.6,95.6c0,0-11,5.8,0,9.9h74.9c0,0,11.6-22.1-22-18C1465.5,87.5,1433,49.7,1412.6,95.6z"/>
		<path class="st14" d="M1389.7,164.1c0,0,21.4,11.3,0,19.2h-145.3c0,0-22.4-42.9,42.7-35C1287.1,148.3,1350.2,75,1389.7,164.1z"/>
		<path class="st15" d="M828.9,513c0,0-62.3,23.9,0,38.3l51,8.4c0,0,38.5,15.5,0,32.3c0,0-39.2,15.1-52.6,15.3
			c-2.4,0-7.3,3.4-8.5,5.6c-1.5,3-0.7,7.1,11.5,10.6h634.8c0,0,88.5,1,94-6.1c0,0,80.2-8.7,3.1-33.4l-157-29.1
			c0,0-12.4-16,12.4-17.4c0,0,140.5,16,159.7,5.1c0,0,49.6-26.2-15.8-41.4C1561.5,501.1,883.8,470.1,828.9,513z"/>
		<g>
			<path class="st16" d="M1444.5,422.2c4-2.8,13.3-3.6,17.9-3.9c0.2,0,0.5,0,0.7,0.1c0.2,0.2,0.3,0.4,0.3,0.7
				c1.5,6.7,0.2,16.2-2.4,22.5c0,0-7-1.2-12.5-9.4C1443,424,1444.5,422.2,1444.5,422.2z"/>
			<path class="st17" d="M1449.9,426.6c2.1-1.2,6.9-2.1,9.2-2c0.2,3.7-0.6,8.7-1.5,12.3c0,0-4.4-2-6.1-6.1
				C1449.9,426.6,1449.9,426.6,1449.9,426.6z"/>
			<path class="st16" d="M1401.9,417.8c-3.5-3.6-12.5-6.3-17.1-7.5c-0.2-0.1-0.5-0.1-0.7,0c-0.2,0.1-0.3,0.4-0.4,0.6
				c-2.4,6.3-2.5,15.9-1,22.6c0,0,7.1,0.3,13.7-6.6C1403.1,419.9,1401.9,417.8,1401.9,417.8z"/>
			<path class="st17" d="M1396,421c-1.9-1.6-6.5-3.5-8.8-3.8c-0.8,3.6-0.7,8.7-0.3,12.4c0,0,4.6-1,6.9-4.8
				C1396,421,1396,421,1396,421z"/>
			<path class="st16" d="M1481,599.7c16.6-16.4,11.7-46.4,10.7-51.7c-3.7-20.3-15.8-37.1-29.4-50.1c-6.8-6.5-14.9-14.1-17.7-23.9
				c0,0-6.6-11.2-22.5-12.6c-15.9-1.4-19.5,14.4-19.5,14.4c-1.7,18.5-2.8,37.2-1.4,55.8c0.9,11.9,2.8,23.7,6.2,35
				c4.5,15,12.7,28.1,24,36.7C1443.7,612.9,1461.6,618.8,1481,599.7z"/>
			<path class="st17" d="M1443.5,473.4c1.3,3-3.6,14.6-4.7,17.2c-2.8,6.3-6,12.7-9.1,18.7c-2.2,4.2-8.7,20.5-9.8,24.2
				c-4,12.3-12.6-2.3-15-8.3c-1.6-4.1-4.2-12.6-4.2-12.6c0-0.4-0.1-27.6,2.6-40.2L1443.5,473.4z"/>
			<path class="st17" d="M1456.4,433.5c5.6,7.9,12.8,14.2,20.7,18.3c-8.4,8.3-45.5,31.5-55.3,32.7c-3.4,0.4-5.3-0.6-5.3-0.6
				c-9.8-1.3-42.5-33.8-49.5-43.7c9.3-2.6,18-8.1,25.1-15.7c1.9-2,3.9-3.9,6-5.5c5.4-3.9,15.6-9.4,27.6-7.5
				c6.8,1.1,13.1,4.7,17.9,8.4C1448.5,423.6,1452.7,428.3,1456.4,433.5z"/>
			<path class="st18" d="M1402.5,475.6c5.9,4.7,11,8,14,8.4c0,0,1.9,1,5.3,0.6c4.1-0.5,13-4.9,22.6-10.4c0,0-12,12.5-24.6,12.4
				C1407.4,486.5,1402.5,475.6,1402.5,475.6z"/>
			<path class="st16" d="M1367,440.2c9.3-2.6,18-8.1,25.1-15.7c1.9-2,3.9-3.9,6-5.5c5.4-3.9,15.6-9.4,27.6-7.5
				c6.8,1.1,13.1,4.7,17.9,8.4c4.9,3.6,9,8.4,12.8,13.6c5.6,7.9,12.8,14.2,20.7,18.3l-1.4,0.3c-7.7-1.6-15.7-1.5-23.4,0.5
				c0-1.1,0.2-2.3,0.6-3.3c-4.4-0.3-8.7,1.3-12.8,3.1c-4,1.7-7.1,3.2-10.2,6.5c-2.8,3-4.7,6.9-5.9,11.1c-0.3,1.1-0.6,2.3-0.9,3.4
				l-6.2-0.7l0,0c-0.7-10-5.4-19-12.8-24.1c-0.1,0-0.1-0.1-0.2-0.1c-3.8-2.6-7.8-5.1-12.1-5.7c0.2,1.1,0.2,2.3,0.1,3.4
				c-7.2-3.5-15.1-5.4-22.9-5.4L1367,440.2z"/>
			<path class="st4" d="M1415,473.8c-0.2-0.6-0.3-1.2,0-1.7c0.3-0.6,0.9-0.6,1.4-0.6c2,0.1,4,0.2,6,0.2c0.5,0,1.1,0,1.6,0.3
				c0.5,0.3,0.9,1,0.9,1.7c0,0.6-0.4,1.1-0.7,1.4c-0.9,1-1.9,1.6-3,2.2C1418.5,478.9,1416,477.5,1415,473.8z"/>
			<path class="st4" d="M1403.5,457.6c-0.1,1.5-1,2.7-1.9,2.6s-1.6-1.4-1.5-2.9c0.1-1.5,1-2.7,1.9-2.6S1403.7,456.1,1403.5,457.6z"
				/>
			<path class="st4" d="M1441.2,461.7c-0.1,1.5-1,2.7-1.9,2.6s-1.6-1.4-1.5-2.9c0.1-1.5,1-2.7,1.9-2.6
				C1440.7,458.9,1441.3,460.2,1441.2,461.7z"/>
			<path class="st16" d="M1389.4,592.1c-5.6-5.6-11.4-11.1-18.1-14.5c-6.8-3.3-14.8-4.2-21.3-0.4c8.1-16.7,23.1-28.2,39.2-31.5
				c16.1-3.3,33.1,1.3,47,11.5c7.6,5.6,14.3,12.7,21.8,18.5c4.9,3.8,10.3,7.1,16.1,8.7c4.7,1.3,13,1.1,17.2-3.2
				c0,0,1.7,35.1-26.9,41.5C1438.4,628.6,1409.5,612,1389.4,592.1z"/>
			<path class="st17" d="M1382.2,585.3c-3.4-3-7-5.7-11-7.7c-6.8-3.3-14.8-4.2-21.3-0.4c4.8-9.9,12-18,20.5-23.6l4.6-2.7h1.6
				c-0.8,0.1-1.5,0.2-2.2,0.6c-0.7,0.4-1.2,1.3-1.1,2.2c0.1,0.6,0.4,1.1,0.8,1.6c2.3,3,4.9,5.6,7.7,7.7c0.8,0.6,1.7,1.3,1.7,2.4
				c0.1,1.1-0.8,2.1-1.7,2.5s-1.9,0.5-2.7,1c-0.5,0.3-1,0.8-1.1,1.4c-0.3,1.4,1,2.5,2.1,3.1c2.9,1.7,5.6,3.9,8,6.4
				c0.3,0.3,0.5,0.6,0.5,1c0,0.3-0.2,0.5-0.4,0.7C1386.2,583.5,1384.7,584.8,1382.2,585.3"/>
			<g>
				<path class="st19" d="M1402.9,544.8c8.5,0.1,16.9,2.3,24.5,6.1c3.8,1.9,7.5,4.2,10.9,6.8c3.4,2.6,6.6,5.4,9.7,8.2
					c3.1,2.8,6.2,5.7,9.5,8.3c3.2,2.6,6.6,5,10.3,7c1.8,1,3.7,1.8,5.7,2.4c1.9,0.7,4,1,6,1.1c2.1,0.1,4.1-0.1,6.2-0.6
					c2-0.5,3.9-1.4,5.5-2.8c-1.4,1.6-3.3,2.7-5.4,3.3c-2,0.7-4.2,1-6.3,1.1c-2.1,0.1-4.3-0.2-6.4-0.8c-2.1-0.6-4.1-1.4-6-2.3
					c-3.9-1.8-7.4-4.3-10.8-6.9c-3.3-2.6-6.5-5.5-9.6-8.3c-6.2-5.7-12.5-11.2-19.9-15.1C1419.4,548.5,1411.3,545.8,1402.9,544.8z"/>
			</g>
			<g>
				<path class="st19" d="M1455.1,539.5c-0.1,2.4-0.4,4.7-0.8,7c-0.4,2.3-1.1,4.6-1.8,6.8c-0.7,2.2-1.6,4.4-2.7,6.6
					c-1,2.1-2.2,4.2-3.6,6.1c-0.2,0.3-0.7,0.4-1,0.1c-0.3-0.2-0.4-0.6-0.2-0.9l0,0c0.5-1,1.1-2,1.5-3.1c0.5-1,1-2.1,1.4-3.1
					c0.9-2.1,1.7-4.3,2.4-6.4c0.7-2.2,1.4-4.4,2-6.6c0.6-2.2,1.1-4.5,1.5-6.7c0.1-0.3,0.4-0.6,0.7-0.5
					C1454.9,538.9,1455.1,539.2,1455.1,539.5z"/>
			</g>
			<g>
				<path class="st19" d="M1437.9,522.9c-0.1,2.8-0.3,5.5-0.4,8.3c-0.2,2.8-0.4,5.5-0.7,8.3c-0.3,2.8-0.5,5.5-0.9,8.3l-0.5,4.1
					c-0.2,1.4-0.4,2.8-0.6,4.1c-0.1,0.4-0.4,0.6-0.8,0.6c-0.3-0.1-0.6-0.4-0.6-0.7c0-1.4,0.1-2.8,0.2-4.2l0.3-4.2
					c0.2-2.8,0.4-5.5,0.7-8.3c0.3-2.8,0.6-5.5,0.9-8.3c0.3-2.8,0.7-5.5,1.1-8.3c0.1-0.3,0.4-0.6,0.7-0.5
					C1437.7,522.3,1437.9,522.6,1437.9,522.9z"/>
			</g>
			<g>
				<g>
					<path class="st19" d="M1459.7,499.4c0.5,0.1,0.9,0.4,1.2,0.7c0.3,0.3,0.6,0.7,0.8,1.2c0.1,0.3-0.1,0.6-0.4,0.7
						c-0.1,0-0.2,0-0.3,0c-0.5-0.1-0.9-0.4-1.2-0.7c-0.3-0.3-0.6-0.7-0.8-1.2c-0.1-0.3,0.1-0.6,0.4-0.7
						C1459.5,499.4,1459.6,499.4,1459.7,499.4z"/>
				</g>
				<g>
					<path class="st19" d="M1459.7,504.7c0.6,0.2,1.1,0.6,1.6,1c0.5,0.4,0.9,0.9,1.1,1.5c0.1,0.3,0,0.6-0.3,0.7
						c-0.1,0.1-0.3,0.1-0.4,0c-0.6-0.2-1.1-0.6-1.6-1.1c-0.4-0.4-0.8-0.9-1.1-1.5c-0.1-0.3,0-0.6,0.3-0.7
						C1459.4,504.7,1459.6,504.7,1459.7,504.7z"/>
				</g>
				<g>
					<path class="st19" d="M1465.4,506.9c0.5,0.1,0.9,0.3,1.3,0.6c0.4,0.3,0.7,0.6,0.9,1.1c0.1,0.3,0,0.6-0.3,0.8
						c-0.1,0-0.2,0.1-0.3,0c-0.5-0.1-0.9-0.3-1.3-0.6c-0.4-0.3-0.7-0.6-0.9-1.1c-0.1-0.3,0-0.6,0.3-0.7
						C1465.3,506.9,1465.4,506.9,1465.4,506.9z"/>
				</g>
				<g>
					<path class="st19" d="M1468.6,513.7c0.6,0.2,1,0.6,1.3,0.9c0.4,0.4,0.7,0.8,0.9,1.4c0.1,0.3-0.1,0.6-0.4,0.7
						c-0.1,0-0.3,0-0.4,0c-0.6-0.2-1-0.6-1.3-1c-0.3-0.4-0.7-0.8-0.8-1.4c-0.1-0.3,0.1-0.6,0.4-0.7
						C1468.4,513.7,1468.5,513.7,1468.6,513.7z"/>
				</g>
				<g>
					<path class="st19" d="M1474.6,517c0.5,0.3,0.8,0.7,1.1,1.1c0.3,0.4,0.5,0.9,0.6,1.5c0,0.3-0.2,0.6-0.5,0.6
						c-0.1,0-0.2,0-0.3-0.1c-0.5-0.3-0.8-0.7-1.1-1.1c-0.3-0.4-0.5-0.9-0.5-1.5c0-0.3,0.2-0.5,0.5-0.6
						C1474.4,516.9,1474.6,517,1474.6,517z"/>
				</g>
				<g>
					<path class="st19" d="M1489.6,555.2c0.3,0.6,0.4,1.3,0.4,1.9c0,0.6,0,1.3-0.2,1.9c-0.1,0.3-0.4,0.4-0.7,0.3
						c-0.1-0.1-0.3-0.2-0.3-0.3c-0.3-0.6-0.4-1.3-0.4-1.9c0-0.6,0-1.3,0.3-1.9c0.1-0.3,0.4-0.4,0.6-0.3
						C1489.4,555,1489.5,555.1,1489.6,555.2z"/>
				</g>
				<g>
					<path class="st19" d="M1487,558.6c0.2,0.7,0.3,1.4,0.4,2.1c0,0.7,0,1.4-0.1,2.1l0,0c-0.1,0.3-0.4,0.5-0.7,0.4
						c-0.2,0-0.3-0.1-0.4-0.3c-0.3-0.7-0.5-1.4-0.5-2.2c0-0.7,0.1-1.5,0.4-2.2c0.1-0.3,0.4-0.4,0.7-0.3
						C1486.9,558.4,1487,558.5,1487,558.6L1487,558.6z"/>
				</g>
				<g>
					<path class="st19" d="M1489.2,566.9c0.3,0.5,0.5,1,0.5,1.5c0,0.5,0,1.1-0.3,1.6c-0.2,0.3-0.5,0.4-0.8,0.2
						c-0.1-0.1-0.2-0.2-0.2-0.3l0,0c-0.2-0.5-0.3-1-0.3-1.4c0-0.5,0-0.9,0.2-1.5l0,0c0.1-0.3,0.4-0.4,0.7-0.3
						C1489.1,566.8,1489.2,566.8,1489.2,566.9z"/>
				</g>
				<g>
					<path class="st19" d="M1487.2,575.2c0.4,0.4,0.6,0.9,0.6,1.4c0,0.5-0.2,1.1-0.7,1.4c-0.3,0.2-0.6,0.1-0.8-0.2
						c0-0.1-0.1-0.1-0.1-0.2l0-0.1c-0.1-0.4-0.1-0.7,0-1c0-0.3,0.1-0.6,0.2-1l0-0.1c0.1-0.3,0.4-0.4,0.7-0.3
						C1487.1,575.1,1487.1,575.1,1487.2,575.2z"/>
				</g>
				<g>
					<path class="st19" d="M1468.7,615.3c-0.2,0.7-0.7,1.4-1.3,1.8c-0.6,0.4-1.4,0.7-2.2,0.6c-0.3,0-0.5-0.3-0.5-0.6
						c0-0.2,0.1-0.3,0.2-0.4l0,0c0.5-0.4,1-0.6,1.5-1c0.5-0.3,0.9-0.7,1.5-1l0,0c0.2-0.1,0.5-0.1,0.7,0.2
						C1468.7,615,1468.7,615.2,1468.7,615.3z"/>
				</g>
				<g>
					<path class="st19" d="M1461.6,615.2c-0.2,0.5-0.7,0.8-1.3,0.9c-0.5,0.1-1.1,0-1.5-0.3c-0.2-0.2-0.3-0.6,0-0.8
						c0.1-0.1,0.1-0.1,0.2-0.1l0.1,0c0.4-0.2,0.7-0.2,1-0.3c0.3,0,0.6-0.1,1-0.1l0.1,0c0.3,0,0.5,0.2,0.5,0.5
						C1461.7,615,1461.7,615.1,1461.6,615.2z"/>
				</g>
				<g>
					<path class="st19" d="M1455.6,619c-0.3,0.7-1.1,1.1-1.9,1.1c-0.8,0.1-1.6-0.3-2-0.9c-0.2-0.3-0.1-0.6,0.2-0.8
						c0.1-0.1,0.2-0.1,0.4-0.1l0.1,0c0.5,0.1,0.9,0.1,1.3,0.1c0.4,0,0.8-0.1,1.3-0.2l0.1,0c0.3-0.1,0.5,0.1,0.6,0.4
						C1455.6,618.8,1455.6,618.9,1455.6,619z"/>
				</g>
				<g>
					<path class="st19" d="M1450.1,615.2c0.1,0.2,0.1,0.5-0.1,0.8c-0.2,0.2-0.3,0.3-0.5,0.4c-0.2,0.1-0.3,0.1-0.5,0.1
						c-0.1,0-0.2,0-0.3,0l-0.1,0c-0.4,0-0.8-0.1-1.1-0.2c-0.7-0.2-1.4-0.5-2.1-0.9c-0.2-0.2-0.3-0.5-0.1-0.8
						c0.1-0.1,0.3-0.2,0.4-0.2c0.8,0,1.5,0.1,2.3,0.3c0.4,0.1,0.7,0.2,1.1,0.4l0.1,0.1c0,0,0,0,0,0c0,0,0,0,0.1,0.1c0,0,0,0,0,0.1
						c-0.1,0.1,0,0.2,0,0.2c-0.1-0.2,0-0.5,0.3-0.6C1449.7,614.8,1450,615,1450.1,615.2z"/>
				</g>
				<g>
					<path class="st19" d="M1444,619.4c-0.6,0.4-1.3,0.5-2,0.4c-0.7-0.1-1.4-0.3-1.9-0.8c-0.2-0.2-0.2-0.6,0-0.8
						c0.1-0.1,0.2-0.2,0.4-0.2l0,0c0.6,0,1.1,0,1.7,0.1c0.5,0.1,1.1,0.1,1.7,0.3l0,0c0.3,0.1,0.4,0.3,0.4,0.6
						C1444.1,619.2,1444.1,619.3,1444,619.4z"/>
				</g>
				<g>
					<path class="st19" d="M1437.5,614.9c-0.7,0.2-1.4,0.1-2-0.2c-0.6-0.3-1.2-0.8-1.4-1.5c-0.1-0.3,0-0.6,0.3-0.7
						c0.1,0,0.3,0,0.4,0l0,0c0.5,0.2,0.9,0.5,1.4,0.7c0.4,0.2,0.8,0.4,1.3,0.7l0,0c0.2,0.1,0.3,0.4,0.2,0.7
						C1437.7,614.8,1437.6,614.9,1437.5,614.9z"/>
				</g>
				<g>
					<path class="st19" d="M1430.7,615.1c-0.6,0.1-1.1,0-1.5-0.1c-0.5-0.1-1-0.3-1.4-0.7c-0.2-0.2-0.2-0.6,0-0.8
						c0.1-0.1,0.2-0.1,0.3-0.2c0.6-0.1,1.1,0,1.5,0.1c0.5,0.2,0.9,0.4,1.3,0.8c0.2,0.2,0.2,0.5,0,0.7
						C1430.9,615,1430.8,615,1430.7,615.1z"/>
				</g>
				<g>
					<path class="st19" d="M1414.3,550.4c0.7-0.1,1.3-0.1,2,0.1c0.6,0.1,1.3,0.3,1.8,0.7c0.3,0.2,0.3,0.5,0.2,0.8
						c-0.1,0.1-0.2,0.2-0.4,0.2c-0.7,0.1-1.3,0-2-0.1c-0.6-0.2-1.3-0.4-1.8-0.7c-0.2-0.2-0.3-0.5-0.1-0.7
						C1414.1,550.5,1414.2,550.4,1414.3,550.4z"/>
				</g>
				<g>
					<path class="st19" d="M1418.3,555.6c0.5-0.2,0.9-0.1,1.4,0c0.4,0.1,0.8,0.2,1.2,0.6c0.2,0.2,0.2,0.6,0,0.8
						c-0.1,0.1-0.2,0.1-0.2,0.2c-0.5,0.2-0.9,0.1-1.3,0c-0.4-0.1-0.8-0.3-1.2-0.6c-0.2-0.2-0.2-0.6,0-0.8
						C1418.2,555.6,1418.3,555.6,1418.3,555.6z"/>
				</g>
				<g>
					<path class="st19" d="M1423.5,554.4c0.5-0.1,1,0.1,1.4,0.3c0.4,0.2,0.8,0.5,1,1c0.1,0.3,0,0.6-0.3,0.8c-0.1,0-0.2,0.1-0.3,0.1
						l0,0c-0.5,0-0.9-0.2-1.2-0.4c-0.4-0.2-0.7-0.4-1-0.8l0,0c-0.2-0.2-0.1-0.6,0.1-0.8C1423.3,554.5,1423.4,554.5,1423.5,554.4z"/>
				</g>
				<g>
					<path class="st19" d="M1426.1,560.9c0.6-0.2,1.3,0,1.8,0.3c0.5,0.3,1,0.7,1.2,1.3c0.1,0.3,0,0.6-0.3,0.7c-0.1,0-0.2,0-0.4,0
						l0,0c-0.5-0.2-0.9-0.4-1.3-0.6c-0.4-0.2-0.7-0.4-1.2-0.8l0,0c-0.2-0.2-0.3-0.5-0.1-0.7C1425.9,560.9,1426,560.9,1426.1,560.9z"
						/>
				</g>
				<g>
					<path class="st19" d="M1432.6,560.5c0.6,0.1,1,0.4,1.5,0.7c0.4,0.3,0.8,0.7,1.1,1.2c0.1,0.3,0,0.6-0.3,0.8
						c-0.1,0.1-0.2,0.1-0.4,0.1c-0.6-0.1-1-0.4-1.5-0.7c-0.4-0.3-0.8-0.7-1.1-1.2c-0.1-0.3,0-0.6,0.2-0.7
						C1432.4,560.5,1432.5,560.5,1432.6,560.5z"/>
				</g>
				<g>
					<path class="st19" d="M1436.1,566.6c0.5-0.1,1,0,1.4,0.3c0.4,0.2,0.8,0.6,0.9,1.1c0.1,0.3-0.1,0.6-0.4,0.7c-0.1,0-0.2,0-0.3,0
						l0,0c-0.5-0.1-0.8-0.2-1.1-0.4c-0.3-0.2-0.6-0.4-0.9-0.8l0,0c-0.2-0.2-0.1-0.6,0.1-0.8C1436,566.7,1436.1,566.7,1436.1,566.6z"
						/>
				</g>
				<g>
					<path class="st19" d="M1440.8,529.5c0.3,0.5,0.4,1.1,0.3,1.6c-0.1,0.5-0.3,1.1-0.7,1.5c-0.2,0.2-0.6,0.2-0.8,0
						c-0.1-0.1-0.1-0.2-0.1-0.3l0,0c-0.1-0.5,0-0.9,0-1.3c0.1-0.4,0.2-0.8,0.4-1.3l0,0c0.1-0.3,0.4-0.4,0.7-0.3
						C1440.7,529.3,1440.8,529.4,1440.8,529.5z"/>
				</g>
				<g>
					<path class="st19" d="M1442.4,534.6c0.2,0.4,0.3,0.8,0.3,1.1c0,0.4-0.1,0.7-0.4,1.1c-0.2,0.3-0.6,0.3-0.9,0.1
						c-0.1,0-0.1-0.1-0.1-0.2c-0.2-0.4-0.3-0.8-0.2-1.1c0-0.4,0.1-0.7,0.4-1.1c0.2-0.2,0.6-0.3,0.8-0.1
						C1442.4,534.5,1442.4,534.6,1442.4,534.6z"/>
				</g>
				<g>
					<path class="st19" d="M1440.1,538.8c0.2,0.5,0.2,1,0.1,1.5c-0.1,0.5-0.2,1-0.5,1.4c-0.2,0.3-0.5,0.3-0.8,0.1
						c-0.1-0.1-0.2-0.2-0.2-0.3l0,0c-0.2-0.5-0.2-1-0.1-1.5c0.1-0.5,0.2-1,0.6-1.4l0,0c0.2-0.2,0.5-0.3,0.7-0.1
						C1440,538.7,1440,538.7,1440.1,538.8z"/>
				</g>
				<g>
					<path class="st19" d="M1441.7,543.1c0.3,0.4,0.4,0.7,0.4,1.1c0,0.4-0.1,0.8-0.4,1.1c-0.2,0.2-0.6,0.3-0.9,0
						c0,0-0.1-0.1-0.1-0.1l0,0c-0.2-0.4-0.2-0.7-0.2-1c0-0.3,0.1-0.6,0.3-1l0,0c0.2-0.3,0.5-0.3,0.8-0.2
						C1441.6,543,1441.6,543,1441.7,543.1z"/>
				</g>
				<g>
					<path class="st19" d="M1439.5,548.1c0.2,0.5,0.3,1,0.2,1.4c0,0.5-0.1,0.9-0.4,1.4c-0.2,0.3-0.5,0.3-0.8,0.2
						c-0.1-0.1-0.2-0.2-0.2-0.3c-0.2-0.5-0.2-1-0.2-1.4c0.1-0.5,0.2-0.9,0.5-1.4c0.2-0.2,0.5-0.3,0.7-0.1
						C1439.4,547.9,1439.5,548,1439.5,548.1z"/>
				</g>
			</g>
			<g>
				<path class="st18" d="M1425.1,495.3c0.3,0.7,0,1.5-0.4,1.9c-0.4,0.5-1.1,0.8-1.9,0.6c-0.6-0.2-1.1-0.7-1.4-1.2
					c-0.3-0.5-0.5-1-0.7-1.5l0.9-0.1c-0.2,1.2-0.6,2.4-1.2,3.5c-0.3,0.6-0.6,1.1-1,1.6c-0.4,0.5-0.9,1-1.6,1.4
					c-0.3,0.2-0.8,0.3-1.3,0.3c-0.5-0.1-0.9-0.3-1.3-0.6c-0.6-0.7-0.8-1.4-1-2c-0.3-1.2-0.6-2.3-0.9-3.5l1.9,0.4
					c-0.6,0.9-1.5,1.7-2.6,2c-0.6,0.2-1.2,0.3-1.8,0.2c-0.6-0.1-1.3-0.4-1.8-0.8c-1-0.9-1.3-2.1-1.3-3.1c-0.1-1,0.1-2,0.3-2.9
					c0.1-0.3,0.3-0.4,0.6-0.3c0.2,0,0.3,0.2,0.3,0.4c0.1,0.9,0.2,1.8,0.5,2.5c0.2,0.8,0.5,1.4,1,1.7c0.4,0.3,0.9,0.4,1.5,0.2
					c0.6-0.2,1.2-0.6,1.6-1.2l0-0.1c0.4-0.5,1-0.5,1.5-0.2c0.2,0.2,0.3,0.4,0.4,0.6c0.2,1.2,0.4,2.4,0.6,3.5c0.1,0.5,0.2,1,0.4,1.3
					c0.2,0.2,0.3,0.3,0.8,0.2c0.8-0.3,1.6-1.3,2.2-2.2c0.6-1,1-2.1,1.3-3.2l0,0c0.1-0.2,0.3-0.4,0.5-0.3c0.2,0,0.3,0.2,0.3,0.3
					c0.3,0.9,0.8,1.9,1.5,2.1c0.3,0.1,0.7,0,0.9-0.3c0.3-0.3,0.3-0.7,0.2-1c-0.1-0.2,0-0.5,0.2-0.6
					C1424.7,494.9,1425,495,1425.1,495.3C1425.1,495.3,1425.1,495.3,1425.1,495.3L1425.1,495.3z"/>
			</g>
			<g>
				<path class="st18" d="M1420.8,508.5c0.2,0.7,0,1.4-0.4,1.9c-0.4,0.5-1.1,0.9-1.8,0.6c-0.7-0.2-1.1-0.7-1.4-1.2
					c-0.3-0.5-0.5-1.1-0.5-1.7l0.9,0c-0.1,1-0.1,2.1-0.5,3.2c-0.2,0.5-0.5,1.1-1,1.5c-0.5,0.4-1.2,0.8-2,0.6
					c-1.5-0.3-2.3-1.4-2.7-2.6c-0.4-1.1-0.5-2.3-0.5-3.3l2,0.4c-0.3,0.7-0.5,1.6-1.5,2.5c-0.5,0.4-1.1,0.7-1.9,0.5
					c-0.4-0.1-0.8-0.3-1-0.5c-0.3-0.2-0.4-0.5-0.6-0.7c-0.3-0.5-0.4-0.9-0.5-1.3c-0.1-0.4-0.2-0.8-0.3-1.2c-0.1-0.8-0.2-1.7,0-2.5
					c0-0.3,0.3-0.4,0.5-0.4c0.2,0,0.3,0.2,0.4,0.3l0,0c0.3,0.7,0.5,1.4,0.8,2.1c0.1,0.3,0.3,0.7,0.4,1c0.2,0.3,0.3,0.7,0.5,0.9
					c0.2,0.2,0.2,0.2,0.2,0.2c0,0,0.1,0,0.2-0.1c0.3-0.2,0.6-0.8,0.9-1.5l0,0c0.2-0.5,0.8-0.8,1.4-0.6c0.4,0.2,0.7,0.6,0.6,1
					c0,1-0.1,1.9,0.1,2.7c0.2,0.8,0.7,1.5,1.3,1.7c0.5,0.2,1.3-0.3,1.6-1.1c0.4-0.8,0.5-1.8,0.6-2.8l0,0c0-0.3,0.2-0.5,0.5-0.4
					c0.2,0,0.4,0.2,0.4,0.4c0,0.5,0.1,0.9,0.4,1.3c0.2,0.4,0.5,0.7,0.9,0.8c0.3,0.1,0.7-0.1,0.9-0.4c0.3-0.3,0.3-0.7,0.2-1
					c-0.1-0.2,0-0.5,0.3-0.6C1420.5,508.1,1420.7,508.2,1420.8,508.5C1420.8,508.5,1420.8,508.5,1420.8,508.5L1420.8,508.5z"/>
			</g>
			<path class="st9" d="M1443.6,467.5c0,1.1-1.4,2-3.1,2c-1.7,0-3.1-0.9-3.1-2s1.4-2,3.1-2C1442.2,465.4,1443.6,466.4,1443.6,467.5z
				"/>
			<path class="st9" d="M1402.5,463.6c-0.2,1.1-1.8,1.6-3.5,1.1c-1.7-0.5-2.9-1.8-2.6-2.9c0.2-1.1,1.8-1.6,3.5-1.1
				C1401.6,461.2,1402.7,462.5,1402.5,463.6z"/>
		</g>
		<g>
			<path class="st20" d="M984.1,585.7c4.8,5.4,12.3,7.9,19.1,6.4c1.2-0.3,2.9-0.4,3.4,0.8c0.3,0.7,0,1.4-0.3,2.1
				c-4.4,9.7-14.5,18.1-24.9,21.5c-13.2,4.3-24,4.1-32.1,2.9c-18-2.6-24.7-13.9-26.7-19.5c0,0-5.3-24.1,19.6-28.9
				C967,566.3,984.1,585.7,984.1,585.7z"/>
			<path class="st21" d="M985.8,587.4c0.6-3.5,2.3-7,5-9.2c-3.7-1.2-7.6-1.6-11.4-1.3c0.1-3.3,0.2-6.6,0.3-9.9
				c-2.5,1.4-5,2.7-7.6,3.9c-2.1-2.3-3.7-5.1-4.8-8.1c-1.5,2.1-3.3,3.9-5.4,5.3c-0.2,0.2-0.5,0.3-0.7,0.3c-0.3,0-0.5-0.2-0.7-0.4
				c-2-1.9-3.4-4.4-3.8-7.2c-2.1,2.7-4.5,5.3-7,7.6c-3-2.1-5.7-4.5-8.1-7.2c-0.6,2.5-1.7,4.9-3.1,7c-0.6,0.9-1.4,1.8-2.4,2.1
				c-0.9,0.2-1.8,0-2.6-0.2c-2.4-0.6-4.8-1.4-7.2-2.4c0.5,2.9,0.7,5.8,0.7,8.8c-3,0.9-6.5,1.3-9.7,0.9c0.8,2.1,1.7,4.2,2.5,6.3
				c0.4,1,0.8,2.1,0.8,3.2c0,2-1.3,3.7-2.9,4.7c-1.6,1-3.5,1.4-5.3,1.8c1.9,1.3,3.8,2.7,5.7,4c0.8,0.6,1.7,1.2,2,2.2
				c0.2,0.7,0.1,1.4-0.1,2.1c-0.6,2.4-1.7,4.7-3.3,6.5c2.6,0,5.1,0.4,7.6,1.1c-0.7,1.8-1.4,3.6-2.1,5.4c2-2,4.3-3.9,7.2-4.8
				c2.8-0.4,15.3,3.6,26.8-5.5c4.9-3.9,7.6-7,12.4-10.9C973.3,589.7,979.8,586.3,985.8,587.4z"/>
			<path class="st22" d="M1007.6,588.4c0.4,0,0.8,0.1,1.1,0.3c0.2,0.2,0.3,0.4,0.4,0.6c0.3,1.1,0.1,2.3-0.5,3.3
				c-1.6,3.1-4.6,0.8-4.4-1C1004.4,589.9,1005.9,588.5,1007.6,588.4z"/>
			<path class="st4" d="M984.4,599.3c0,0.9-0.6,1.7-1.3,1.7s-1.3-0.8-1.3-1.7c0-0.9,0.6-1.7,1.3-1.7S984.4,598.4,984.4,599.3z"/>
			<path class="st20" d="M937.2,615.1c0,0.7,0.1,2.5,0.1,3.3c0,0.7,0.1,1.5,0.3,2.2c0.3,0.7,0.8,1.3,1.5,1.4c0.2,0,0.4,0,0.5-0.1
				c0.2-0.2,0.1-0.5,0.1-0.7c-0.3-1.3,0-3.6,0.3-4.9L937.2,615.1z"/>
			<path class="st20" d="M942,616.9c-0.1,1-0.1,2.9,0.1,3.8c0,0.2,0.1,0.5,0.2,0.7c0.3,0.8,1.2,1.2,2,0.9c0.1,0,0.2-0.1,0.3-0.2
				c0-0.1,0-0.2,0-0.3c-0.1-0.6-0.2-1.3,0-2c0.1-0.3,0.2-2.1,0.1-2.4L942,616.9z"/>
			<path class="st20" d="M976.1,617.4c0.1,0.7,0.2,2.2,0.3,2.9c0,0.7,0.2,1.4,0.6,2s1.1,0.9,1.7,0.7c0.1,0,0.2-0.1,0.3-0.2
				c0.2-0.2,0.1-0.5,0.1-0.7c-0.3-1.4-0.4-3.7-0.2-5.1L976.1,617.4z"/>
			<path class="st20" d="M973.4,617.7c-0.2,1.5,0.1,3.9,0.5,5.3c0,0.1,0.1,0.2,0,0.3c-0.1,0.3-0.5,0.4-0.8,0.4c-0.5,0-1-0.2-1.4-0.6
				c-0.3-0.3-0.4-0.8-0.5-1.2c-0.2-0.9-0.3-2.8-0.3-3.7L973.4,617.7z"/>
			<g>
				<g>
					<path class="st23" d="M976.9,585.4c-0.4-0.3-0.5-0.6-0.5-1c0-0.4,0-0.7,0.4-1.1c0.3-0.3,0.9-0.3,1.2,0c0,0,0,0,0,0l0.1,0.1
						c0.3,0.3,0.4,0.6,0.4,0.9c0,0.3-0.1,0.6-0.3,0.9l0,0.1C977.7,585.5,977.3,585.6,976.9,585.4L976.9,585.4z"/>
				</g>
				<g>
					<path class="st23" d="M973.5,586.6c-0.6-0.1-1.1-0.5-1.4-1c-0.3-0.5-0.4-1.2-0.1-1.7c0.2-0.3,0.6-0.5,1-0.3
						c0.1,0,0.1,0.1,0.2,0.1l0.1,0.1c0.3,0.3,0.5,0.6,0.6,0.9c0.1,0.3,0.2,0.6,0.3,1l0,0.1c0.1,0.4-0.2,0.7-0.5,0.8
						C973.6,586.6,973.5,586.6,973.5,586.6z"/>
				</g>
				<g>
					<path class="st23" d="M969.1,589c-0.6-0.1-0.9-0.4-1.2-0.8c-0.3-0.4-0.4-0.9-0.3-1.4c0.1-0.4,0.5-0.6,0.9-0.5
						c0.1,0,0.1,0,0.2,0.1l0.1,0c0.4,0.2,0.6,0.5,0.8,0.8c0.2,0.3,0.3,0.6,0.3,1.1l0,0.1c0,0.4-0.2,0.7-0.6,0.8
						C969.2,589,969.2,589,969.1,589z"/>
				</g>
				<g>
					<path class="st23" d="M967.8,581.8c-0.4-0.2-0.6-0.5-0.7-0.8c-0.1-0.3-0.1-0.7,0.2-1.1c0.3-0.3,0.8-0.4,1.2-0.1l0.1,0.1
						c0.3,0.2,0.4,0.5,0.5,0.7c0,0.2,0,0.5-0.2,0.9l0,0.1C968.6,581.8,968.2,582,967.8,581.8z"/>
				</g>
				<g>
					<path class="st23" d="M972,579.9c-0.3-0.4-0.4-0.9-0.4-1.4c0-0.5,0.1-1,0.4-1.4c0.2-0.3,0.7-0.4,1-0.2c0.1,0.1,0.1,0.1,0.2,0.2
						l0.1,0.1c0.3,0.5,0.4,0.9,0.4,1.3c0,0.4-0.1,0.9-0.4,1.3l0,0.1c-0.2,0.3-0.6,0.4-0.9,0.2C972.1,580,972.1,580,972,579.9z"/>
				</g>
				<g>
					<path class="st23" d="M963.8,575.9c0.3,0.3,0.4,0.6,0.5,0.9c0,0.3,0,0.6-0.3,0.9c-0.3,0.4-0.9,0.4-1.2,0.1
						c-0.3-0.3-0.4-0.6-0.4-0.9c0-0.3,0.1-0.6,0.4-0.9C962.9,575.6,963.4,575.6,963.8,575.9z"/>
				</g>
				<g>
					<path class="st23" d="M957.6,578.8c0.3,0.4,0.4,0.8,0.5,1.3c0,0.4,0.1,0.8-0.2,1.3l0,0c-0.2,0.4-0.6,0.6-1,0.4
						c-0.1,0-0.2-0.1-0.2-0.1c-0.4-0.4-0.6-0.9-0.6-1.4c0-0.5,0-1,0.4-1.5c0.2-0.3,0.6-0.4,0.9-0.2
						C957.5,578.6,957.5,578.7,957.6,578.8L957.6,578.8z"/>
				</g>
				<g>
					<path class="st23" d="M962.2,583.8c0.4,0.2,0.5,0.5,0.7,0.8c0.1,0.3,0.1,0.6-0.1,1c-0.2,0.4-0.8,0.6-1.2,0.3
						c-0.4-0.2-0.5-0.5-0.6-0.8c-0.1-0.3-0.1-0.6,0.2-1C961.3,583.7,961.8,583.6,962.2,583.8z"/>
				</g>
				<g>
					<path class="st23" d="M957.7,587.9c0.4,0.2,0.5,0.5,0.6,0.7c0.1,0.3,0,0.6-0.2,0.9c-0.3,0.4-0.8,0.5-1.2,0.2
						c-0.4-0.2-0.5-0.5-0.5-0.7c0-0.3,0-0.6,0.3-0.9C956.9,587.7,957.4,587.7,957.7,587.9z"/>
				</g>
				<g>
					<path class="st23" d="M962.5,590.6c0.4,0.2,0.6,0.5,0.7,0.8c0.1,0.3,0.1,0.7-0.1,1.1c-0.2,0.4-0.7,0.6-1.1,0.4c0,0,0,0,0,0
						c-0.4-0.2-0.6-0.5-0.6-0.9c-0.1-0.3-0.1-0.7,0.1-1.1C961.6,590.5,962.1,590.3,962.5,590.6C962.5,590.5,962.5,590.6,962.5,590.6
						z"/>
				</g>
				<g>
					<path class="st23" d="M957.9,596.8c-0.5,0.1-1,0-1.3-0.3c-0.3-0.3-0.6-0.7-0.5-1.2c0.1-0.4,0.5-0.7,0.9-0.6c0,0,0,0,0,0l0.2,0
						c0.4,0.1,0.6,0.2,0.8,0.3c0.2,0.2,0.3,0.4,0.4,0.7l0.1,0.2C958.4,596.2,958.2,596.6,957.9,596.8
						C957.9,596.8,957.9,596.8,957.9,596.8z"/>
				</g>
				<g>
					<path class="st23" d="M952.6,585.4c-0.5-0.1-0.9-0.4-1.1-0.7c-0.2-0.4-0.4-0.8-0.2-1.3c0.1-0.4,0.6-0.6,1-0.5c0,0,0.1,0,0.1,0
						l0.1,0.1c0.4,0.2,0.6,0.4,0.7,0.6c0.1,0.3,0.2,0.5,0.2,1l0,0.1C953.4,585,953.1,585.4,952.6,585.4
						C952.7,585.4,952.6,585.4,952.6,585.4z"/>
				</g>
				<g>
					<path class="st23" d="M947.9,589.7c-0.7,0.1-1.4-0.3-1.9-0.8c-0.5-0.5-0.7-1.2-0.5-1.9c0.1-0.4,0.5-0.6,0.8-0.5
						c0.1,0,0.2,0.1,0.3,0.1l0.1,0.1c0.4,0.3,0.6,0.6,0.8,0.9c0.2,0.3,0.4,0.5,0.7,1l0.1,0.1c0.2,0.3,0.1,0.7-0.2,0.9
						C948.1,589.6,948,589.7,947.9,589.7z"/>
				</g>
				<g>
					<path class="st23" d="M951.5,591.6c0.3,0.3,0.5,0.6,0.6,0.9c0.1,0.3,0.2,0.6,0,1.1l0,0.1c-0.1,0.4-0.5,0.7-0.9,0.6
						c0,0-0.1,0-0.1,0c-0.5-0.2-0.7-0.7-0.9-1.1c-0.1-0.4-0.1-0.9,0.2-1.4c0.2-0.3,0.6-0.4,1-0.2
						C951.3,591.5,951.4,591.5,951.5,591.6L951.5,591.6z"/>
				</g>
				<g>
					<path class="st23" d="M944.5,594.3c0.3,0.5,0.4,0.9,0.6,1.3c0.1,0.4,0.3,0.8,0.3,1.4l0,0.1c0,0.4-0.3,0.7-0.7,0.7
						c-0.1,0-0.2,0-0.3-0.1c-0.6-0.3-1-0.9-1.2-1.6c-0.2-0.6-0.2-1.3,0.2-1.9c0.2-0.3,0.6-0.4,0.9-0.2
						C944.3,594.1,944.4,594.1,944.5,594.3L944.5,594.3z"/>
				</g>
				<g>
					<path class="st23" d="M949.9,599.4c0.4,0.2,0.6,0.4,0.7,0.7c0.1,0.3,0.2,0.5,0.1,1l0,0.1c-0.1,0.4-0.6,0.7-1,0.6c0,0,0,0,0,0
						c-0.5-0.2-0.7-0.5-0.8-0.8c-0.1-0.3-0.2-0.7,0-1.2C949,599.3,949.5,599.1,949.9,599.4C949.9,599.3,949.9,599.3,949.9,599.4
						L949.9,599.4z"/>
				</g>
				<g>
					<path class="st23" d="M943.7,603.8c0.3,0.4,0.4,0.8,0.5,1.2c0.1,0.4,0.1,0.8,0,1.3l0,0.1c-0.1,0.4-0.5,0.6-0.9,0.5
						c-0.1,0-0.2-0.1-0.2-0.1c-0.5-0.4-0.7-0.9-0.8-1.4c-0.1-0.5,0-1.1,0.3-1.6c0.2-0.3,0.6-0.4,0.9-0.2
						C943.5,603.6,943.6,603.7,943.7,603.8L943.7,603.8z"/>
				</g>
				<g>
					<path class="st23" d="M937.1,605.1c0.3,0.2,0.5,0.5,0.6,0.7c0.1,0.2,0.1,0.5,0,0.9l0,0.1c-0.2,0.4-0.6,0.6-1.1,0.5l0,0
						c-0.4-0.2-0.7-0.5-0.8-0.9c-0.1-0.4-0.1-0.8,0.2-1.2C936.2,604.9,936.7,604.8,937.1,605.1L937.1,605.1z"/>
				</g>
				<g>
					<path class="st23" d="M939,598.2c0.3,0.3,0.5,0.7,0.5,1c0,0.4,0,0.7-0.3,1.1c-0.3,0.4-0.8,0.4-1.2,0.2c0,0-0.1,0-0.1-0.1
						c-0.3-0.3-0.4-0.7-0.4-1c0-0.4,0.1-0.7,0.4-1.1C938.2,597.9,938.6,597.9,939,598.2C939,598.1,939,598.1,939,598.2z"/>
				</g>
				<g>
					<path class="st23" d="M930.7,598.8c0.4,0.3,0.5,0.5,0.6,0.8c0.1,0.3,0,0.6-0.2,1c-0.3,0.4-0.8,0.5-1.2,0.2
						c-0.4-0.3-0.5-0.5-0.5-0.9c0-0.3,0-0.6,0.3-1C929.8,598.7,930.3,598.6,930.7,598.8z"/>
				</g>
				<g>
					<path class="st23" d="M927.4,604.7c0.3,0.3,0.5,0.5,0.6,0.8c0.1,0.3,0.1,0.5,0,0.9l0,0.1c-0.1,0.4-0.6,0.6-1,0.5c0,0,0,0,0,0
						c-0.5-0.2-0.7-0.6-0.8-1c-0.1-0.4-0.1-0.8,0.2-1.2c0.2-0.3,0.7-0.4,1-0.2C927.3,604.7,927.3,604.7,927.4,604.7L927.4,604.7z"/>
				</g>
				<g>
					<path class="st23" d="M924,599.3c0.4,0.2,0.6,0.5,0.7,0.8c0.1,0.3,0.1,0.6-0.1,1c-0.2,0.4-0.8,0.6-1.2,0.3
						c-0.4-0.2-0.5-0.5-0.6-0.8c-0.1-0.3-0.1-0.6,0.2-1C923.1,599.2,923.6,599.1,924,599.3z"/>
				</g>
				<g>
					<path class="st23" d="M933.3,592.5c0.4,0.3,0.5,0.5,0.7,0.8c0.1,0.3,0.2,0.5,0.2,1l0,0.1c0,0.4-0.4,0.7-0.8,0.7
						c0,0-0.1,0-0.1,0c-0.5-0.1-0.9-0.5-1-1c-0.2-0.4-0.2-0.9,0-1.4c0.2-0.3,0.6-0.5,1-0.3C933.2,592.4,933.2,592.4,933.3,592.5
						L933.3,592.5z"/>
				</g>
				<g>
					<path class="st23" d="M926,593.3c0.4,0.2,0.5,0.4,0.7,0.7c0.1,0.3,0.1,0.5,0,0.9l0,0.1c-0.2,0.4-0.6,0.7-1.1,0.5
						c-0.4-0.1-0.6-0.5-0.8-0.8c-0.1-0.3-0.1-0.7,0.1-1.1C925.1,593.2,925.6,593.1,926,593.3L926,593.3z"/>
				</g>
				<g>
					<path class="st23" d="M939.2,589.6c0.4,0.2,0.5,0.5,0.7,0.7c0.1,0.3,0.2,0.5,0.1,0.9l0,0.1c-0.1,0.4-0.5,0.7-0.9,0.6
						c0,0-0.1,0-0.1,0c-0.5-0.1-0.8-0.5-1-0.9c-0.2-0.4-0.2-0.9,0.1-1.3c0.2-0.3,0.6-0.5,1-0.3C939.1,589.5,939.1,589.5,939.2,589.6
						L939.2,589.6z"/>
				</g>
				<g>
					<path class="st23" d="M941,583.9c0.4,0.3,0.6,0.7,0.7,1c0.1,0.4,0.2,0.8,0,1.3c-0.2,0.4-0.6,0.6-1,0.4c-0.1,0-0.1-0.1-0.2-0.1
						c-0.4-0.3-0.6-0.7-0.7-1.1c-0.1-0.4-0.1-0.8,0.1-1.3c0.2-0.4,0.6-0.5,0.9-0.4C940.9,583.8,940.9,583.8,941,583.9z"/>
				</g>
				<g>
					<path class="st23" d="M933.9,585.7c0.4,0.2,0.5,0.4,0.6,0.7c0.1,0.3,0.1,0.5-0.2,0.9c-0.3,0.4-0.8,0.5-1.2,0.3
						c-0.4-0.2-0.5-0.4-0.6-0.7c0-0.3,0-0.5,0.2-0.9C933,585.6,933.5,585.5,933.9,585.7z"/>
				</g>
				<g>
					<path class="st23" d="M927.5,586.9c0.3,0.3,0.4,0.5,0.5,0.7c0.1,0.2,0.1,0.4,0,0.8l-0.1,0.2c-0.1,0.4-0.5,0.6-0.9,0.5
						c0,0,0,0,0,0c-0.5-0.2-0.8-0.6-0.9-1c-0.1-0.4-0.1-0.9,0.3-1.3c0.3-0.3,0.7-0.3,1-0.1c0,0,0,0,0,0L927.5,586.9z"/>
				</g>
				<g>
					<path class="st23" d="M946.3,579.2c0.4,0.2,0.6,0.5,0.7,0.8c0.1,0.3,0.1,0.7-0.1,1.1c-0.2,0.4-0.7,0.6-1.1,0.4c0,0,0,0,0,0
						c-0.4-0.2-0.6-0.5-0.7-0.8c-0.1-0.3-0.1-0.7,0.1-1.1C945.4,579.1,945.8,579,946.3,579.2C946.2,579.2,946.3,579.2,946.3,579.2z"
						/>
				</g>
				<g>
					<path class="st23" d="M951.7,574.8c0.3,0.4,0.4,0.7,0.5,1c0,0.3,0,0.7-0.2,1.1l0,0c-0.2,0.4-0.7,0.5-1.1,0.3c0,0-0.1,0-0.1-0.1
						c-0.4-0.3-0.5-0.7-0.6-1.1c0-0.4,0-0.8,0.4-1.2c0.3-0.3,0.7-0.4,1-0.1C951.6,574.7,951.6,574.7,951.7,574.8L951.7,574.8z"/>
				</g>
				<g>
					<path class="st23" d="M958.1,573.9c0.4,0.2,0.5,0.5,0.5,0.8c0,0.3,0,0.6-0.4,0.8c-0.3,0.2-0.8,0.2-1.1,0l-0.1-0.1
						c-0.3-0.2-0.4-0.4-0.4-0.6c0-0.2,0.1-0.4,0.3-0.6l0.1-0.1C957.3,573.8,957.8,573.8,958.1,573.9z"/>
				</g>
				<g>
					<path class="st23" d="M983.6,582.3c0,0.5-0.1,0.8-0.2,1.1c-0.1,0.3-0.2,0.6-0.5,1l-0.1,0.1c-0.2,0.3-0.6,0.4-1,0.2
						c-0.1,0-0.1-0.1-0.2-0.2c-0.4-0.5-0.4-1.2-0.2-1.8c0.2-0.6,0.6-1.1,1.3-1.3c0.3-0.1,0.7,0.1,0.8,0.5c0,0.1,0,0.1,0,0.2
						L983.6,582.3z"/>
				</g>
				<g>
					<path class="st23" d="M940.2,577.8c0.4,0.3,0.6,0.6,0.7,0.9c0.1,0.3,0.1,0.7-0.1,1.1c-0.2,0.4-0.7,0.6-1.1,0.4c0,0-0.1,0-0.1,0
						c-0.4-0.3-0.5-0.6-0.6-0.9c-0.1-0.3-0.1-0.7,0.1-1.1C939.2,577.7,939.7,577.6,940.2,577.8C940.1,577.8,940.1,577.8,940.2,577.8
						z"/>
				</g>
				<g>
					<path class="st23" d="M934.7,579.8c0.4,0.2,0.6,0.4,0.7,0.6c0.1,0.2,0.2,0.5,0,0.9l0,0.1c-0.2,0.4-0.6,0.7-1.1,0.5
						c-0.4-0.1-0.6-0.4-0.7-0.7c-0.1-0.3-0.1-0.6,0.1-1C933.8,579.8,934.2,579.6,934.7,579.8L934.7,579.8z"/>
				</g>
				<g>
					<path class="st23" d="M928.2,581.6c0.4,0.2,0.6,0.4,0.8,0.6c0.1,0.3,0.2,0.5,0.1,1l0,0.1c-0.1,0.5-0.6,0.7-1,0.6c0,0,0,0,0,0
						c-0.4-0.1-0.7-0.4-0.8-0.7c-0.1-0.3-0.2-0.7,0-1.1C927.3,581.6,927.8,581.4,928.2,581.6L928.2,581.6L928.2,581.6z"/>
				</g>
				<g>
					<path class="st23" d="M920.8,592.4c0.5,0,0.8,0.2,1.1,0.5c0.3,0.3,0.5,0.6,0.5,1c0,0.5-0.3,0.9-0.8,0.9c0,0-0.1,0-0.1,0
						c-0.5,0-0.8-0.2-1-0.5c-0.2-0.3-0.4-0.6-0.5-1.1C920,592.8,920.3,592.5,920.8,592.4C920.8,592.4,920.8,592.4,920.8,592.4z"/>
				</g>
			</g>
			<g>
				<g>
					<path class="st24" d="M977.4,615.2c-0.2,0.4-0.5,0.6-0.8,0.8c-0.3,0.2-0.7,0.3-1.1,0.3c-0.2,0-0.3-0.2-0.3-0.4
						c0-0.1,0-0.1,0.1-0.2l0,0c0.2-0.3,0.5-0.4,0.8-0.6c0.3-0.1,0.5-0.3,0.9-0.4l0,0c0.2,0,0.3,0.1,0.4,0.2
						C977.4,615.1,977.4,615.1,977.4,615.2z"/>
				</g>
				<g>
					<path class="st24" d="M973.5,615c-0.1,0.2-0.3,0.4-0.5,0.5c-0.2,0.1-0.4,0.2-0.7,0.1c-0.2,0-0.3-0.3-0.3-0.5c0,0,0-0.1,0-0.1
						c0.1-0.2,0.3-0.3,0.5-0.4c0.2-0.1,0.4-0.1,0.7-0.1C973.4,614.5,973.6,614.7,973.5,615C973.5,614.9,973.5,614.9,973.5,615z"/>
				</g>
				<g>
					<path class="st24" d="M973.2,616.8c-0.1,0.2-0.3,0.4-0.5,0.5c-0.2,0.1-0.4,0.2-0.7,0.1c-0.2,0-0.4-0.2-0.3-0.5c0,0,0-0.1,0-0.1
						c0.1-0.2,0.3-0.4,0.5-0.5c0.2-0.1,0.4-0.2,0.7-0.1C973.1,616.3,973.3,616.5,973.2,616.8C973.2,616.7,973.2,616.8,973.2,616.8z"
						/>
				</g>
				<g>
					<path class="st24" d="M969.9,616c-0.1,0.3-0.4,0.5-0.7,0.6c-0.3,0.1-0.6,0.1-0.9-0.1c-0.2-0.1-0.2-0.3-0.1-0.5
						c0,0,0.1-0.1,0.1-0.1l0.1,0c0.2-0.1,0.4-0.2,0.6-0.2c0.2,0,0.4-0.1,0.7-0.1l0,0c0.2,0,0.3,0.2,0.3,0.3
						C969.9,615.9,969.9,615.9,969.9,616z"/>
				</g>
				<g>
					<path class="st24" d="M966.9,618.1c-0.2,0.2-0.5,0.3-0.7,0.4c-0.3,0-0.5,0.1-0.8,0c-0.2-0.1-0.3-0.3-0.2-0.5
						c0-0.1,0-0.1,0.1-0.1c0.2-0.2,0.5-0.3,0.7-0.3c0.3,0,0.5-0.1,0.8,0c0.2,0.1,0.3,0.3,0.2,0.4C967,618,967,618,966.9,618.1z"/>
				</g>
				<g>
					<path class="st24" d="M963.4,616.5c-0.2,0.3-0.6,0.5-0.9,0.6c-0.4,0.1-0.8,0.1-1.1-0.1c-0.2-0.1-0.2-0.3-0.1-0.5
						c0-0.1,0.1-0.1,0.1-0.1l0,0c0.3-0.1,0.6-0.2,0.8-0.3c0.3,0,0.5-0.1,0.9-0.1l0,0c0.2,0,0.3,0.1,0.3,0.3
						C963.5,616.4,963.5,616.5,963.4,616.5z"/>
				</g>
				<g>
					<path class="st24" d="M959.9,618.4c-0.1,0.3-0.4,0.4-0.7,0.4c-0.3,0-0.5,0-0.8-0.2c-0.1-0.1-0.2-0.4,0-0.5c0,0,0,0,0.1-0.1
						l0.1,0c0.2-0.1,0.4-0.1,0.5-0.2c0.2,0,0.3,0,0.6,0l0.1,0C959.9,617.9,960,618.1,959.9,618.4
						C959.9,618.3,959.9,618.4,959.9,618.4z"/>
				</g>
				<g>
					<path class="st24" d="M956.7,616.9c-0.3,0.2-0.6,0.2-0.9,0.3c-0.3,0-0.6,0-0.9-0.1c-0.2-0.1-0.3-0.3-0.2-0.5
						c0-0.1,0.1-0.1,0.1-0.2c0.3-0.2,0.6-0.2,0.9-0.3c0.3,0,0.6,0,0.9,0.1c0.2,0.1,0.2,0.3,0.2,0.4
						C956.8,616.8,956.7,616.8,956.7,616.9z"/>
				</g>
				<g>
					<path class="st24" d="M953.1,618.1c-0.2,0.3-0.5,0.4-0.8,0.4c-0.3,0-0.6,0-0.9-0.2c-0.2-0.1-0.2-0.3-0.1-0.5
						c0,0,0.1-0.1,0.1-0.1l0,0c0.2-0.1,0.4-0.2,0.6-0.2c0.2,0,0.4,0,0.7,0l0,0c0.2,0,0.3,0.2,0.3,0.4
						C953.2,618,953.1,618.1,953.1,618.1z"/>
				</g>
				<g>
					<path class="st24" d="M951,615.4c-0.3,0.2-0.7,0.2-1.1,0.2c-0.4-0.1-0.7-0.1-1-0.4c-0.1-0.1-0.1-0.3,0-0.5
						c0.1-0.1,0.1-0.1,0.2-0.1l0,0c0.3-0.1,0.6,0,0.9,0c0.3,0.1,0.6,0.1,0.9,0.2l0,0c0.2,0.1,0.2,0.3,0.2,0.4
						C951.1,615.3,951.1,615.4,951,615.4z"/>
				</g>
				<g>
					<path class="st24" d="M948.1,617c-0.3,0.2-0.5,0.2-0.8,0.2c-0.3,0-0.5-0.1-0.8-0.3c-0.1-0.1-0.2-0.4,0-0.5c0,0,0.1-0.1,0.1-0.1
						l0,0c0.3-0.1,0.5-0.1,0.7-0.1c0.2,0,0.4,0.1,0.7,0.2l0,0C948.3,616.5,948.3,616.8,948.1,617C948.2,616.9,948.1,617,948.1,617z"
						/>
				</g>
				<g>
					<path class="st24" d="M945.1,614.6c-0.2,0.2-0.4,0.2-0.7,0.2c-0.2,0-0.4,0-0.6-0.2c-0.2-0.1-0.2-0.4,0-0.6c0,0,0,0,0.1-0.1
						c0.2-0.2,0.4-0.1,0.7-0.2c0.2,0,0.4,0.1,0.6,0.2C945.2,614.2,945.3,614.4,945.1,614.6C945.1,614.6,945.1,614.6,945.1,614.6z"/>
				</g>
				<g>
					<path class="st24" d="M941.8,615.4c-0.4,0.2-0.7,0.1-1.1,0.1c-0.4-0.1-0.7-0.2-1-0.5c-0.1-0.1-0.1-0.3,0-0.5
						c0.1-0.1,0.1-0.1,0.2-0.1l0,0c0.4-0.1,0.7,0,1,0.1c0.3,0.1,0.6,0.1,1,0.3l0,0c0.2,0.1,0.2,0.3,0.1,0.4
						C941.9,615.3,941.9,615.4,941.8,615.4z"/>
				</g>
				<g>
					<path class="st24" d="M940,613.3c-0.3,0.1-0.5,0-0.8,0c-0.2-0.1-0.5-0.2-0.6-0.4c-0.1-0.2-0.1-0.4,0.1-0.5c0,0,0.1,0,0.1-0.1
						c0.3-0.1,0.5,0,0.8,0.1c0.2,0.1,0.4,0.2,0.6,0.4c0.1,0.2,0.1,0.4-0.1,0.5C940.1,613.3,940.1,613.3,940,613.3z"/>
				</g>
				<g>
					<path class="st24" d="M937.2,613.8c-0.3,0-0.6-0.1-0.8-0.2c-0.2-0.2-0.5-0.3-0.6-0.6c-0.1-0.2,0-0.4,0.2-0.5c0,0,0.1,0,0.1,0
						l0.1,0c0.3,0,0.5,0.1,0.8,0.2c0.2,0.2,0.4,0.3,0.6,0.6l0,0.1c0.1,0.2,0,0.3-0.1,0.4C937.3,613.7,937.3,613.8,937.2,613.8z"/>
				</g>
			</g>
		</g>
	</g>
</g>
</svg>
