<?xml version="1.0" encoding="utf-8"?>
<!-- Svg Vector Icons : http://www.onlinewebfonts.com/icon -->
<!DOCTYPE svg PUBLIC "-//W3C//DTD SVG 1.1//EN" "http://www.w3.org/Graphics/SVG/1.1/DTD/svg11.dtd">
<svg version="1.1" xmlns="http://www.w3.org/2000/svg" xmlns:xlink="http://www.w3.org/1999/xlink" x="0px" y="0px" viewBox="0 0 1000 1000" enable-background="new 0 0 1000 1000" xml:space="preserve">
<metadata> Svg Vector Icons : http://www.onlinewebfonts.com/icon </metadata>
<g><path d="M500,10C229.4,10,10,229.4,10,500s219.4,490,490,490s490-219.4,490-490S770.6,10,500,10z M778.8,498.6c-67.9,120-209.6,175.3-276.2,296.1C425,648,214.1,607.7,199.8,424.3c-1.8-45.8,15.9-93.3,52.1-123.7c73.3-67.2,204.6-49.8,251,40.7c41.1-81.7,152.7-105.8,227.5-57.1C804,324.9,818.5,429.2,778.8,498.6z"/></g>
</svg>